<mxfile host="app.diagrams.net" agent="Mozilla/5.0 (Windows NT 10.0; Win64; x64) AppleWebKit/537.36 (KHTML, like Gecko) Chrome/131.0.0.0 Safari/537.36" version="25.0.3">
  <diagram id="8EH9hB1dNieiw7E9Z1W6" name="Страница — 1">
    <mxGraphModel dx="3587" dy="2091" grid="0" gridSize="10" guides="1" tooltips="1" connect="1" arrows="1" fold="1" page="0" pageScale="1" pageWidth="827" pageHeight="1169" math="0" shadow="0">
      <root>
        <mxCell id="0" />
        <mxCell id="1" parent="0" />
        <mxCell id="19911jeWXW9q6ewDr9nu-7" value="" style="ellipse;whiteSpace=wrap;html=1;aspect=fixed;rounded=1;" vertex="1" parent="1">
          <mxGeometry x="142" y="-22.5" width="30" height="30" as="geometry" />
        </mxCell>
        <mxCell id="19911jeWXW9q6ewDr9nu-8" value="S" style="text;html=1;align=center;verticalAlign=middle;whiteSpace=wrap;rounded=1;" vertex="1" parent="1">
          <mxGeometry x="147" y="-17.5" width="20" height="20" as="geometry" />
        </mxCell>
        <mxCell id="19911jeWXW9q6ewDr9nu-16" value="" style="ellipse;whiteSpace=wrap;html=1;aspect=fixed;rounded=1;" vertex="1" parent="1">
          <mxGeometry x="22" y="57.5" width="30" height="30" as="geometry" />
        </mxCell>
        <mxCell id="19911jeWXW9q6ewDr9nu-17" value="n" style="text;html=1;align=center;verticalAlign=middle;whiteSpace=wrap;rounded=1;" vertex="1" parent="1">
          <mxGeometry x="27" y="65" width="20" height="12.5" as="geometry" />
        </mxCell>
        <mxCell id="19911jeWXW9q6ewDr9nu-18" value="" style="ellipse;whiteSpace=wrap;html=1;aspect=fixed;rounded=1;" vertex="1" parent="1">
          <mxGeometry x="62" y="56.25" width="30" height="30" as="geometry" />
        </mxCell>
        <mxCell id="19911jeWXW9q6ewDr9nu-19" value="f" style="text;html=1;align=center;verticalAlign=middle;whiteSpace=wrap;rounded=1;" vertex="1" parent="1">
          <mxGeometry x="67" y="61.25" width="20" height="20" as="geometry" />
        </mxCell>
        <mxCell id="19911jeWXW9q6ewDr9nu-20" value="" style="ellipse;whiteSpace=wrap;html=1;aspect=fixed;rounded=1;" vertex="1" parent="1">
          <mxGeometry x="102" y="56.25" width="30" height="30" as="geometry" />
        </mxCell>
        <mxCell id="19911jeWXW9q6ewDr9nu-21" value="" style="ellipse;whiteSpace=wrap;html=1;aspect=fixed;rounded=1;" vertex="1" parent="1">
          <mxGeometry x="142" y="56.25" width="30" height="30" as="geometry" />
        </mxCell>
        <mxCell id="19911jeWXW9q6ewDr9nu-22" value="" style="ellipse;whiteSpace=wrap;html=1;aspect=fixed;rounded=1;" vertex="1" parent="1">
          <mxGeometry x="182" y="56.25" width="30" height="30" as="geometry" />
        </mxCell>
        <mxCell id="19911jeWXW9q6ewDr9nu-23" value="" style="ellipse;whiteSpace=wrap;html=1;aspect=fixed;rounded=1;" vertex="1" parent="1">
          <mxGeometry x="222" y="56.25" width="30" height="30" as="geometry" />
        </mxCell>
        <mxCell id="19911jeWXW9q6ewDr9nu-27" value="i" style="text;html=1;align=center;verticalAlign=middle;whiteSpace=wrap;rounded=1;" vertex="1" parent="1">
          <mxGeometry x="107" y="61.25" width="20" height="20" as="geometry" />
        </mxCell>
        <mxCell id="19911jeWXW9q6ewDr9nu-28" value="(" style="text;html=1;align=center;verticalAlign=middle;whiteSpace=wrap;rounded=1;" vertex="1" parent="1">
          <mxGeometry x="147" y="61.25" width="20" height="20" as="geometry" />
        </mxCell>
        <mxCell id="19911jeWXW9q6ewDr9nu-29" value=")" style="text;html=1;align=center;verticalAlign=middle;whiteSpace=wrap;rounded=1;" vertex="1" parent="1">
          <mxGeometry x="187" y="61.25" width="20" height="20" as="geometry" />
        </mxCell>
        <mxCell id="19911jeWXW9q6ewDr9nu-30" value="T" style="text;html=1;align=center;verticalAlign=middle;whiteSpace=wrap;rounded=1;" vertex="1" parent="1">
          <mxGeometry x="227" y="61.25" width="20" height="20" as="geometry" />
        </mxCell>
        <mxCell id="19911jeWXW9q6ewDr9nu-40" value="" style="endArrow=none;html=1;rounded=1;exitX=0.5;exitY=0;exitDx=0;exitDy=0;entryX=0.5;entryY=1;entryDx=0;entryDy=0;" edge="1" parent="1" source="19911jeWXW9q6ewDr9nu-16" target="19911jeWXW9q6ewDr9nu-7">
          <mxGeometry width="50" height="50" relative="1" as="geometry">
            <mxPoint x="92" y="47.5" as="sourcePoint" />
            <mxPoint x="142" y="-2.5" as="targetPoint" />
          </mxGeometry>
        </mxCell>
        <mxCell id="19911jeWXW9q6ewDr9nu-43" value="" style="endArrow=none;html=1;rounded=1;exitX=0.5;exitY=0;exitDx=0;exitDy=0;entryX=0.5;entryY=1;entryDx=0;entryDy=0;" edge="1" parent="1" source="19911jeWXW9q6ewDr9nu-18" target="19911jeWXW9q6ewDr9nu-7">
          <mxGeometry width="50" height="50" relative="1" as="geometry">
            <mxPoint x="97" y="52.5" as="sourcePoint" />
            <mxPoint x="147" y="2.5" as="targetPoint" />
          </mxGeometry>
        </mxCell>
        <mxCell id="19911jeWXW9q6ewDr9nu-44" value="" style="endArrow=none;html=1;rounded=1;exitX=0.5;exitY=0;exitDx=0;exitDy=0;entryX=0.5;entryY=1;entryDx=0;entryDy=0;" edge="1" parent="1" source="19911jeWXW9q6ewDr9nu-20" target="19911jeWXW9q6ewDr9nu-7">
          <mxGeometry width="50" height="50" relative="1" as="geometry">
            <mxPoint x="119" y="50.5" as="sourcePoint" />
            <mxPoint x="151" y="7.5" as="targetPoint" />
          </mxGeometry>
        </mxCell>
        <mxCell id="19911jeWXW9q6ewDr9nu-45" value="" style="endArrow=none;html=1;rounded=1;exitX=0.5;exitY=0;exitDx=0;exitDy=0;entryX=0.5;entryY=1;entryDx=0;entryDy=0;" edge="1" parent="1" source="19911jeWXW9q6ewDr9nu-21" target="19911jeWXW9q6ewDr9nu-7">
          <mxGeometry width="50" height="50" relative="1" as="geometry">
            <mxPoint x="158.04" y="44" as="sourcePoint" />
            <mxPoint x="157" y="7.5" as="targetPoint" />
          </mxGeometry>
        </mxCell>
        <mxCell id="19911jeWXW9q6ewDr9nu-46" value="" style="endArrow=none;html=1;rounded=1;exitX=0.5;exitY=0;exitDx=0;exitDy=0;entryX=0.5;entryY=1;entryDx=0;entryDy=0;" edge="1" parent="1" source="19911jeWXW9q6ewDr9nu-22" target="19911jeWXW9q6ewDr9nu-7">
          <mxGeometry width="50" height="50" relative="1" as="geometry">
            <mxPoint x="172" y="48.5" as="sourcePoint" />
            <mxPoint x="157" y="5.5" as="targetPoint" />
          </mxGeometry>
        </mxCell>
        <mxCell id="19911jeWXW9q6ewDr9nu-47" value="" style="endArrow=none;html=1;rounded=1;exitX=0.5;exitY=0;exitDx=0;exitDy=0;entryX=0.5;entryY=1;entryDx=0;entryDy=0;" edge="1" parent="1" source="19911jeWXW9q6ewDr9nu-23" target="19911jeWXW9q6ewDr9nu-7">
          <mxGeometry width="50" height="50" relative="1" as="geometry">
            <mxPoint x="206" y="33.5" as="sourcePoint" />
            <mxPoint x="172" y="2.5" as="targetPoint" />
          </mxGeometry>
        </mxCell>
        <mxCell id="19911jeWXW9q6ewDr9nu-49" value="i" style="ellipse;whiteSpace=wrap;html=1;aspect=fixed;rounded=1;" vertex="1" parent="1">
          <mxGeometry x="95" y="246.5" width="33" height="33" as="geometry" />
        </mxCell>
        <mxCell id="19911jeWXW9q6ewDr9nu-50" value="E" style="ellipse;whiteSpace=wrap;html=1;aspect=fixed;rounded=1;" vertex="1" parent="1">
          <mxGeometry x="95" y="195.5" width="33" height="33" as="geometry" />
        </mxCell>
        <mxCell id="19911jeWXW9q6ewDr9nu-51" value="" style="ellipse;whiteSpace=wrap;html=1;aspect=fixed;rounded=1;" vertex="1" parent="1">
          <mxGeometry x="52" y="133.5" width="32" height="32" as="geometry" />
        </mxCell>
        <mxCell id="19911jeWXW9q6ewDr9nu-52" value=";" style="ellipse;whiteSpace=wrap;html=1;aspect=fixed;rounded=1;" vertex="1" parent="1">
          <mxGeometry x="138" y="195.5" width="32" height="32" as="geometry" />
        </mxCell>
        <mxCell id="19911jeWXW9q6ewDr9nu-53" value="}" style="ellipse;whiteSpace=wrap;html=1;aspect=fixed;rounded=1;" vertex="1" parent="1">
          <mxGeometry x="232" y="133.5" width="33" height="33" as="geometry" />
        </mxCell>
        <mxCell id="19911jeWXW9q6ewDr9nu-54" value="r" style="ellipse;whiteSpace=wrap;html=1;aspect=fixed;rounded=1;" vertex="1" parent="1">
          <mxGeometry x="138" y="133.5" width="32" height="32" as="geometry" />
        </mxCell>
        <mxCell id="19911jeWXW9q6ewDr9nu-55" value=";" style="ellipse;whiteSpace=wrap;html=1;aspect=fixed;rounded=1;" vertex="1" parent="1">
          <mxGeometry x="184.5" y="133" width="34" height="34" as="geometry" />
        </mxCell>
        <mxCell id="19911jeWXW9q6ewDr9nu-56" value="z" style="ellipse;whiteSpace=wrap;html=1;aspect=fixed;rounded=1;" vertex="1" parent="1">
          <mxGeometry x="50.75" y="195.5" width="34.5" height="34.5" as="geometry" />
        </mxCell>
        <mxCell id="19911jeWXW9q6ewDr9nu-57" value="" style="ellipse;whiteSpace=wrap;html=1;aspect=fixed;rounded=1;" vertex="1" parent="1">
          <mxGeometry x="96" y="134.5" width="31" height="31" as="geometry" />
        </mxCell>
        <mxCell id="19911jeWXW9q6ewDr9nu-58" value="{&lt;span style=&quot;color: rgba(0, 0, 0, 0); font-family: monospace; font-size: 0px; text-align: start; text-wrap-mode: nowrap; background-color: rgb(251, 251, 251);&quot;&gt;%3CmxGraphModel%3E%3Croot%3E%3CmxCell%20id%3D%220%22%2F%3E%3CmxCell%20id%3D%221%22%20parent%3D%220%22%2F%3E%3CmxCell%20id%3D%222%22%20value%3D%22%22%20style%3D%22endArrow%3Dnone%3Bhtml%3D1%3Brounded%3D1%3B%22%20edge%3D%221%22%20parent%3D%221%22%3E%3CmxGeometry%20width%3D%2250%22%20height%3D%2250%22%20relative%3D%221%22%20as%3D%22geometry%22%3E%3CmxPoint%20x%3D%22560%22%20y%3D%22190%22%20as%3D%22sourcePoint%22%2F%3E%3CmxPoint%20x%3D%22610%22%20y%3D%22140%22%20as%3D%22targetPoint%22%2F%3E%3C%2FmxGeometry%3E%3C%2FmxCell%3E%3C%2Froot%3E%3C%2FmxGraphModel%3E&lt;/span&gt;" style="text;html=1;align=center;verticalAlign=middle;whiteSpace=wrap;rounded=0;" vertex="1" parent="1">
          <mxGeometry x="56.62" y="141" width="22.75" height="18" as="geometry" />
        </mxCell>
        <mxCell id="19911jeWXW9q6ewDr9nu-60" value="N" style="text;html=1;align=center;verticalAlign=middle;whiteSpace=wrap;rounded=0;" vertex="1" parent="1">
          <mxGeometry x="101" y="139.75" width="21" height="20.5" as="geometry" />
        </mxCell>
        <mxCell id="19911jeWXW9q6ewDr9nu-61" value="" style="endArrow=none;html=1;rounded=1;exitX=0.5;exitY=0;exitDx=0;exitDy=0;entryX=0.5;entryY=1;entryDx=0;entryDy=0;" edge="1" parent="1" source="19911jeWXW9q6ewDr9nu-55" target="19911jeWXW9q6ewDr9nu-23">
          <mxGeometry width="50" height="50" relative="1" as="geometry">
            <mxPoint x="208" y="124.25" as="sourcePoint" />
            <mxPoint x="232" y="86.25" as="targetPoint" />
          </mxGeometry>
        </mxCell>
        <mxCell id="19911jeWXW9q6ewDr9nu-62" value="" style="endArrow=none;html=1;rounded=1;exitX=0.5;exitY=0;exitDx=0;exitDy=0;entryX=0.5;entryY=1;entryDx=0;entryDy=0;" edge="1" parent="1" source="19911jeWXW9q6ewDr9nu-54" target="19911jeWXW9q6ewDr9nu-23">
          <mxGeometry width="50" height="50" relative="1" as="geometry">
            <mxPoint x="190" y="115.25" as="sourcePoint" />
            <mxPoint x="232" y="86.25" as="targetPoint" />
          </mxGeometry>
        </mxCell>
        <mxCell id="19911jeWXW9q6ewDr9nu-63" value="" style="endArrow=none;html=1;rounded=1;exitX=0.5;exitY=0;exitDx=0;exitDy=0;entryX=0.5;entryY=1;entryDx=0;entryDy=0;" edge="1" parent="1" source="19911jeWXW9q6ewDr9nu-57" target="19911jeWXW9q6ewDr9nu-23">
          <mxGeometry width="50" height="50" relative="1" as="geometry">
            <mxPoint x="180" y="103.25" as="sourcePoint" />
            <mxPoint x="232" y="86.25" as="targetPoint" />
          </mxGeometry>
        </mxCell>
        <mxCell id="19911jeWXW9q6ewDr9nu-64" value="" style="endArrow=none;html=1;rounded=1;exitX=0.5;exitY=0;exitDx=0;exitDy=0;entryX=0.5;entryY=1;entryDx=0;entryDy=0;" edge="1" parent="1" source="19911jeWXW9q6ewDr9nu-51" target="19911jeWXW9q6ewDr9nu-23">
          <mxGeometry width="50" height="50" relative="1" as="geometry">
            <mxPoint x="153.63" y="95.25" as="sourcePoint" />
            <mxPoint x="232" y="86.25" as="targetPoint" />
          </mxGeometry>
        </mxCell>
        <mxCell id="19911jeWXW9q6ewDr9nu-65" value="" style="endArrow=none;html=1;rounded=1;exitX=0.5;exitY=0;exitDx=0;exitDy=0;entryX=0.5;entryY=1;entryDx=0;entryDy=0;" edge="1" parent="1" source="19911jeWXW9q6ewDr9nu-53" target="19911jeWXW9q6ewDr9nu-23">
          <mxGeometry width="50" height="50" relative="1" as="geometry">
            <mxPoint x="262" y="115.5" as="sourcePoint" />
            <mxPoint x="232" y="87.5" as="targetPoint" />
          </mxGeometry>
        </mxCell>
        <mxCell id="19911jeWXW9q6ewDr9nu-66" value="" style="endArrow=none;html=1;rounded=1;exitX=0.5;exitY=0;exitDx=0;exitDy=0;entryX=0.5;entryY=1;entryDx=0;entryDy=0;" edge="1" parent="1" source="19911jeWXW9q6ewDr9nu-50" target="19911jeWXW9q6ewDr9nu-57">
          <mxGeometry width="50" height="50" relative="1" as="geometry">
            <mxPoint x="111.14" y="192" as="sourcePoint" />
            <mxPoint x="111.14" y="165.5" as="targetPoint" />
          </mxGeometry>
        </mxCell>
        <mxCell id="19911jeWXW9q6ewDr9nu-67" value="" style="endArrow=none;html=1;rounded=1;exitX=0.5;exitY=0;exitDx=0;exitDy=0;entryX=0.5;entryY=1;entryDx=0;entryDy=0;" edge="1" parent="1" source="19911jeWXW9q6ewDr9nu-56" target="19911jeWXW9q6ewDr9nu-57">
          <mxGeometry width="50" height="50" relative="1" as="geometry">
            <mxPoint x="96" y="199.5" as="sourcePoint" />
            <mxPoint x="112" y="165.5" as="targetPoint" />
          </mxGeometry>
        </mxCell>
        <mxCell id="19911jeWXW9q6ewDr9nu-68" value="" style="endArrow=none;html=1;rounded=1;exitX=0.5;exitY=0;exitDx=0;exitDy=0;entryX=0.5;entryY=1;entryDx=0;entryDy=0;" edge="1" parent="1" source="19911jeWXW9q6ewDr9nu-52" target="19911jeWXW9q6ewDr9nu-57">
          <mxGeometry width="50" height="50" relative="1" as="geometry">
            <mxPoint x="132" y="186.5" as="sourcePoint" />
            <mxPoint x="111" y="165.5" as="targetPoint" />
          </mxGeometry>
        </mxCell>
        <mxCell id="19911jeWXW9q6ewDr9nu-69" value="" style="endArrow=none;html=1;rounded=1;exitX=0.5;exitY=0;exitDx=0;exitDy=0;" edge="1" parent="1" source="19911jeWXW9q6ewDr9nu-49">
          <mxGeometry width="50" height="50" relative="1" as="geometry">
            <mxPoint x="111.52000000000001" y="251.5" as="sourcePoint" />
            <mxPoint x="111.14" y="228.5" as="targetPoint" />
          </mxGeometry>
        </mxCell>
        <mxCell id="19911jeWXW9q6ewDr9nu-113" value="" style="ellipse;whiteSpace=wrap;html=1;aspect=fixed;rounded=1;" vertex="1" parent="1">
          <mxGeometry x="372" y="107" width="30" height="30" as="geometry" />
        </mxCell>
        <mxCell id="19911jeWXW9q6ewDr9nu-114" value="S" style="text;html=1;align=center;verticalAlign=middle;whiteSpace=wrap;rounded=1;" vertex="1" parent="1">
          <mxGeometry x="377" y="112" width="20" height="20" as="geometry" />
        </mxCell>
        <mxCell id="19911jeWXW9q6ewDr9nu-115" value="" style="ellipse;whiteSpace=wrap;html=1;aspect=fixed;rounded=1;" vertex="1" parent="1">
          <mxGeometry x="252" y="187" width="30" height="30" as="geometry" />
        </mxCell>
        <mxCell id="19911jeWXW9q6ewDr9nu-116" value="t" style="text;html=1;align=center;verticalAlign=middle;whiteSpace=wrap;rounded=1;" vertex="1" parent="1">
          <mxGeometry x="257" y="194.5" width="20" height="12.5" as="geometry" />
        </mxCell>
        <mxCell id="19911jeWXW9q6ewDr9nu-117" value="" style="ellipse;whiteSpace=wrap;html=1;aspect=fixed;rounded=1;" vertex="1" parent="1">
          <mxGeometry x="292" y="185.75" width="30" height="30" as="geometry" />
        </mxCell>
        <mxCell id="19911jeWXW9q6ewDr9nu-118" value="f" style="text;html=1;align=center;verticalAlign=middle;whiteSpace=wrap;rounded=1;" vertex="1" parent="1">
          <mxGeometry x="297" y="190.75" width="20" height="20" as="geometry" />
        </mxCell>
        <mxCell id="19911jeWXW9q6ewDr9nu-119" value="" style="ellipse;whiteSpace=wrap;html=1;aspect=fixed;rounded=1;" vertex="1" parent="1">
          <mxGeometry x="332" y="185.75" width="30" height="30" as="geometry" />
        </mxCell>
        <mxCell id="19911jeWXW9q6ewDr9nu-120" value="" style="ellipse;whiteSpace=wrap;html=1;aspect=fixed;rounded=1;" vertex="1" parent="1">
          <mxGeometry x="372" y="185.75" width="30" height="30" as="geometry" />
        </mxCell>
        <mxCell id="19911jeWXW9q6ewDr9nu-121" value="" style="ellipse;whiteSpace=wrap;html=1;aspect=fixed;rounded=1;" vertex="1" parent="1">
          <mxGeometry x="412" y="185.75" width="30" height="30" as="geometry" />
        </mxCell>
        <mxCell id="19911jeWXW9q6ewDr9nu-122" value="" style="ellipse;whiteSpace=wrap;html=1;aspect=fixed;rounded=1;" vertex="1" parent="1">
          <mxGeometry x="495" y="185.75" width="30" height="30" as="geometry" />
        </mxCell>
        <mxCell id="19911jeWXW9q6ewDr9nu-124" value="i" style="text;html=1;align=center;verticalAlign=middle;whiteSpace=wrap;rounded=1;" vertex="1" parent="1">
          <mxGeometry x="337" y="190.75" width="20" height="20" as="geometry" />
        </mxCell>
        <mxCell id="19911jeWXW9q6ewDr9nu-125" value="(" style="text;html=1;align=center;verticalAlign=middle;whiteSpace=wrap;rounded=1;" vertex="1" parent="1">
          <mxGeometry x="377" y="190.75" width="20" height="20" as="geometry" />
        </mxCell>
        <mxCell id="19911jeWXW9q6ewDr9nu-126" value="F" style="text;html=1;align=center;verticalAlign=middle;whiteSpace=wrap;rounded=1;" vertex="1" parent="1">
          <mxGeometry x="417" y="190.75" width="20" height="20" as="geometry" />
        </mxCell>
        <mxCell id="19911jeWXW9q6ewDr9nu-127" value="T" style="text;html=1;align=center;verticalAlign=middle;whiteSpace=wrap;rounded=1;" vertex="1" parent="1">
          <mxGeometry x="500" y="190.75" width="20" height="20" as="geometry" />
        </mxCell>
        <mxCell id="19911jeWXW9q6ewDr9nu-129" value="" style="endArrow=none;html=1;rounded=1;exitX=0.5;exitY=0;exitDx=0;exitDy=0;entryX=0.5;entryY=1;entryDx=0;entryDy=0;" edge="1" parent="1" source="19911jeWXW9q6ewDr9nu-115" target="19911jeWXW9q6ewDr9nu-113">
          <mxGeometry width="50" height="50" relative="1" as="geometry">
            <mxPoint x="322" y="177" as="sourcePoint" />
            <mxPoint x="372" y="127" as="targetPoint" />
          </mxGeometry>
        </mxCell>
        <mxCell id="19911jeWXW9q6ewDr9nu-130" value="" style="endArrow=none;html=1;rounded=1;exitX=0.5;exitY=0;exitDx=0;exitDy=0;entryX=0.5;entryY=1;entryDx=0;entryDy=0;" edge="1" parent="1" source="19911jeWXW9q6ewDr9nu-117" target="19911jeWXW9q6ewDr9nu-113">
          <mxGeometry width="50" height="50" relative="1" as="geometry">
            <mxPoint x="327" y="182" as="sourcePoint" />
            <mxPoint x="377" y="132" as="targetPoint" />
          </mxGeometry>
        </mxCell>
        <mxCell id="19911jeWXW9q6ewDr9nu-131" value="" style="endArrow=none;html=1;rounded=1;exitX=0.5;exitY=0;exitDx=0;exitDy=0;entryX=0.5;entryY=1;entryDx=0;entryDy=0;" edge="1" parent="1" source="19911jeWXW9q6ewDr9nu-119" target="19911jeWXW9q6ewDr9nu-113">
          <mxGeometry width="50" height="50" relative="1" as="geometry">
            <mxPoint x="349" y="180" as="sourcePoint" />
            <mxPoint x="381" y="137" as="targetPoint" />
          </mxGeometry>
        </mxCell>
        <mxCell id="19911jeWXW9q6ewDr9nu-132" value="" style="endArrow=none;html=1;rounded=1;exitX=0.5;exitY=0;exitDx=0;exitDy=0;entryX=0.5;entryY=1;entryDx=0;entryDy=0;" edge="1" parent="1" source="19911jeWXW9q6ewDr9nu-120" target="19911jeWXW9q6ewDr9nu-113">
          <mxGeometry width="50" height="50" relative="1" as="geometry">
            <mxPoint x="388.03999999999996" y="173.5" as="sourcePoint" />
            <mxPoint x="387" y="137" as="targetPoint" />
          </mxGeometry>
        </mxCell>
        <mxCell id="19911jeWXW9q6ewDr9nu-133" value="" style="endArrow=none;html=1;rounded=1;exitX=0.5;exitY=0;exitDx=0;exitDy=0;entryX=0.5;entryY=1;entryDx=0;entryDy=0;" edge="1" parent="1" source="19911jeWXW9q6ewDr9nu-121" target="19911jeWXW9q6ewDr9nu-113">
          <mxGeometry width="50" height="50" relative="1" as="geometry">
            <mxPoint x="402" y="178" as="sourcePoint" />
            <mxPoint x="387" y="135" as="targetPoint" />
          </mxGeometry>
        </mxCell>
        <mxCell id="19911jeWXW9q6ewDr9nu-134" value="" style="endArrow=none;html=1;rounded=1;exitX=0.5;exitY=0;exitDx=0;exitDy=0;entryX=0.5;entryY=1;entryDx=0;entryDy=0;" edge="1" parent="1" source="19911jeWXW9q6ewDr9nu-122" target="19911jeWXW9q6ewDr9nu-113">
          <mxGeometry width="50" height="50" relative="1" as="geometry">
            <mxPoint x="436" y="163" as="sourcePoint" />
            <mxPoint x="402" y="132" as="targetPoint" />
          </mxGeometry>
        </mxCell>
        <mxCell id="19911jeWXW9q6ewDr9nu-138" value="" style="ellipse;whiteSpace=wrap;html=1;aspect=fixed;rounded=1;" vertex="1" parent="1">
          <mxGeometry x="285" y="263.5" width="32" height="32" as="geometry" />
        </mxCell>
        <mxCell id="19911jeWXW9q6ewDr9nu-140" value="}" style="ellipse;whiteSpace=wrap;html=1;aspect=fixed;rounded=1;" vertex="1" parent="1">
          <mxGeometry x="462" y="263" width="33" height="33" as="geometry" />
        </mxCell>
        <mxCell id="19911jeWXW9q6ewDr9nu-141" value="E" style="ellipse;whiteSpace=wrap;html=1;aspect=fixed;rounded=1;" vertex="1" parent="1">
          <mxGeometry x="370" y="262.25" width="32" height="32" as="geometry" />
        </mxCell>
        <mxCell id="19911jeWXW9q6ewDr9nu-142" value=";" style="ellipse;whiteSpace=wrap;html=1;aspect=fixed;rounded=1;" vertex="1" parent="1">
          <mxGeometry x="414.5" y="262.5" width="34" height="34" as="geometry" />
        </mxCell>
        <mxCell id="19911jeWXW9q6ewDr9nu-144" value="" style="ellipse;whiteSpace=wrap;html=1;aspect=fixed;rounded=1;" vertex="1" parent="1">
          <mxGeometry x="326" y="264" width="31" height="31" as="geometry" />
        </mxCell>
        <mxCell id="19911jeWXW9q6ewDr9nu-145" value="{&lt;span style=&quot;color: rgba(0, 0, 0, 0); font-family: monospace; font-size: 0px; text-align: start; text-wrap-mode: nowrap; background-color: rgb(251, 251, 251);&quot;&gt;%3CmxGraphModel%3E%3Croot%3E%3CmxCell%20id%3D%220%22%2F%3E%3CmxCell%20id%3D%221%22%20parent%3D%220%22%2F%3E%3CmxCell%20id%3D%222%22%20value%3D%22%22%20style%3D%22endArrow%3Dnone%3Bhtml%3D1%3Brounded%3D1%3B%22%20edge%3D%221%22%20parent%3D%221%22%3E%3CmxGeometry%20width%3D%2250%22%20height%3D%2250%22%20relative%3D%221%22%20as%3D%22geometry%22%3E%3CmxPoint%20x%3D%22560%22%20y%3D%22190%22%20as%3D%22sourcePoint%22%2F%3E%3CmxPoint%20x%3D%22610%22%20y%3D%22140%22%20as%3D%22targetPoint%22%2F%3E%3C%2FmxGeometry%3E%3C%2FmxCell%3E%3C%2Froot%3E%3C%2FmxGraphModel%3E&lt;/span&gt;" style="text;html=1;align=center;verticalAlign=middle;whiteSpace=wrap;rounded=0;" vertex="1" parent="1">
          <mxGeometry x="289.62" y="271" width="22.75" height="18" as="geometry" />
        </mxCell>
        <mxCell id="19911jeWXW9q6ewDr9nu-146" value="r" style="text;html=1;align=center;verticalAlign=middle;whiteSpace=wrap;rounded=0;" vertex="1" parent="1">
          <mxGeometry x="331" y="269.25" width="21" height="20.5" as="geometry" />
        </mxCell>
        <mxCell id="19911jeWXW9q6ewDr9nu-147" value="" style="endArrow=none;html=1;rounded=1;exitX=0.5;exitY=0;exitDx=0;exitDy=0;entryX=0.5;entryY=1;entryDx=0;entryDy=0;" edge="1" parent="1" source="19911jeWXW9q6ewDr9nu-142" target="19911jeWXW9q6ewDr9nu-122">
          <mxGeometry width="50" height="50" relative="1" as="geometry">
            <mxPoint x="438" y="253.75" as="sourcePoint" />
            <mxPoint x="462" y="215.75" as="targetPoint" />
          </mxGeometry>
        </mxCell>
        <mxCell id="19911jeWXW9q6ewDr9nu-148" value="" style="endArrow=none;html=1;rounded=1;exitX=0.5;exitY=0;exitDx=0;exitDy=0;entryX=0.5;entryY=1;entryDx=0;entryDy=0;" edge="1" parent="1" source="19911jeWXW9q6ewDr9nu-141" target="19911jeWXW9q6ewDr9nu-122">
          <mxGeometry width="50" height="50" relative="1" as="geometry">
            <mxPoint x="420" y="244.75" as="sourcePoint" />
            <mxPoint x="462" y="215.75" as="targetPoint" />
          </mxGeometry>
        </mxCell>
        <mxCell id="19911jeWXW9q6ewDr9nu-149" value="" style="endArrow=none;html=1;rounded=1;exitX=0.5;exitY=0;exitDx=0;exitDy=0;entryX=0.5;entryY=1;entryDx=0;entryDy=0;" edge="1" parent="1" source="19911jeWXW9q6ewDr9nu-144" target="19911jeWXW9q6ewDr9nu-122">
          <mxGeometry width="50" height="50" relative="1" as="geometry">
            <mxPoint x="410" y="232.75" as="sourcePoint" />
            <mxPoint x="462" y="215.75" as="targetPoint" />
          </mxGeometry>
        </mxCell>
        <mxCell id="19911jeWXW9q6ewDr9nu-150" value="" style="endArrow=none;html=1;rounded=1;exitX=0.5;exitY=0;exitDx=0;exitDy=0;entryX=0.5;entryY=1;entryDx=0;entryDy=0;" edge="1" parent="1" source="19911jeWXW9q6ewDr9nu-138" target="19911jeWXW9q6ewDr9nu-122">
          <mxGeometry width="50" height="50" relative="1" as="geometry">
            <mxPoint x="383.63" y="224.75" as="sourcePoint" />
            <mxPoint x="462" y="215.75" as="targetPoint" />
          </mxGeometry>
        </mxCell>
        <mxCell id="19911jeWXW9q6ewDr9nu-151" value="" style="endArrow=none;html=1;rounded=1;exitX=0.5;exitY=0;exitDx=0;exitDy=0;entryX=0.5;entryY=1;entryDx=0;entryDy=0;" edge="1" parent="1" source="19911jeWXW9q6ewDr9nu-140" target="19911jeWXW9q6ewDr9nu-122">
          <mxGeometry width="50" height="50" relative="1" as="geometry">
            <mxPoint x="492" y="245" as="sourcePoint" />
            <mxPoint x="462" y="217" as="targetPoint" />
          </mxGeometry>
        </mxCell>
        <mxCell id="19911jeWXW9q6ewDr9nu-156" value="" style="endArrow=none;html=1;rounded=1;exitX=0.5;exitY=0;exitDx=0;exitDy=0;entryX=0.5;entryY=1;entryDx=0;entryDy=0;" edge="1" parent="1" source="19911jeWXW9q6ewDr9nu-113" target="19911jeWXW9q6ewDr9nu-7">
          <mxGeometry width="50" height="50" relative="1" as="geometry">
            <mxPoint x="462" y="101" as="sourcePoint" />
            <mxPoint x="253" y="51" as="targetPoint" />
          </mxGeometry>
        </mxCell>
        <mxCell id="19911jeWXW9q6ewDr9nu-157" value=")" style="ellipse;whiteSpace=wrap;html=1;aspect=fixed;rounded=1;" vertex="1" parent="1">
          <mxGeometry x="453" y="184.88" width="31.75" height="31.75" as="geometry" />
        </mxCell>
        <mxCell id="19911jeWXW9q6ewDr9nu-158" value="" style="endArrow=none;html=1;rounded=1;entryX=0.5;entryY=1;entryDx=0;entryDy=0;exitX=0.5;exitY=0;exitDx=0;exitDy=0;" edge="1" parent="1" source="19911jeWXW9q6ewDr9nu-157" target="19911jeWXW9q6ewDr9nu-113">
          <mxGeometry width="50" height="50" relative="1" as="geometry">
            <mxPoint x="484.75" y="222.5" as="sourcePoint" />
            <mxPoint x="432" y="162.5" as="targetPoint" />
          </mxGeometry>
        </mxCell>
        <mxCell id="19911jeWXW9q6ewDr9nu-159" value="" style="ellipse;whiteSpace=wrap;html=1;aspect=fixed;rounded=1;" vertex="1" parent="1">
          <mxGeometry x="370" y="319.5" width="30" height="30" as="geometry" />
        </mxCell>
        <mxCell id="19911jeWXW9q6ewDr9nu-160" value="i" style="text;html=1;align=center;verticalAlign=middle;whiteSpace=wrap;rounded=1;" vertex="1" parent="1">
          <mxGeometry x="375" y="324.5" width="20" height="20" as="geometry" />
        </mxCell>
        <mxCell id="19911jeWXW9q6ewDr9nu-161" value="" style="endArrow=none;html=1;rounded=1;entryX=0.5;entryY=1;entryDx=0;entryDy=0;exitX=0.5;exitY=0;exitDx=0;exitDy=0;" edge="1" parent="1" source="19911jeWXW9q6ewDr9nu-159" target="19911jeWXW9q6ewDr9nu-141">
          <mxGeometry width="50" height="50" relative="1" as="geometry">
            <mxPoint x="374" y="342.5" as="sourcePoint" />
            <mxPoint x="374" y="303.5" as="targetPoint" />
          </mxGeometry>
        </mxCell>
        <mxCell id="19911jeWXW9q6ewDr9nu-162" value="" style="ellipse;whiteSpace=wrap;html=1;aspect=fixed;rounded=1;" vertex="1" parent="1">
          <mxGeometry x="195" y="264.5" width="30" height="30" as="geometry" />
        </mxCell>
        <mxCell id="19911jeWXW9q6ewDr9nu-163" value="t" style="text;html=1;align=center;verticalAlign=middle;whiteSpace=wrap;rounded=1;" vertex="1" parent="1">
          <mxGeometry x="200" y="272" width="20" height="12.5" as="geometry" />
        </mxCell>
        <mxCell id="19911jeWXW9q6ewDr9nu-165" value="" style="ellipse;whiteSpace=wrap;html=1;aspect=fixed;rounded=1;" vertex="1" parent="1">
          <mxGeometry x="236" y="264.5" width="30" height="30" as="geometry" />
        </mxCell>
        <mxCell id="19911jeWXW9q6ewDr9nu-166" value="i" style="text;html=1;align=center;verticalAlign=middle;whiteSpace=wrap;rounded=1;" vertex="1" parent="1">
          <mxGeometry x="241" y="269.5" width="20" height="20" as="geometry" />
        </mxCell>
        <mxCell id="19911jeWXW9q6ewDr9nu-167" value="" style="endArrow=none;html=1;rounded=1;entryX=0.5;entryY=1;entryDx=0;entryDy=0;exitX=0.5;exitY=0;exitDx=0;exitDy=0;" edge="1" parent="1" source="19911jeWXW9q6ewDr9nu-162" target="19911jeWXW9q6ewDr9nu-121">
          <mxGeometry width="50" height="50" relative="1" as="geometry">
            <mxPoint x="225" y="280.5" as="sourcePoint" />
            <mxPoint x="275" y="230.5" as="targetPoint" />
          </mxGeometry>
        </mxCell>
        <mxCell id="19911jeWXW9q6ewDr9nu-168" value="" style="endArrow=none;html=1;rounded=1;entryX=0.5;entryY=1;entryDx=0;entryDy=0;exitX=0.5;exitY=0;exitDx=0;exitDy=0;" edge="1" parent="1" source="19911jeWXW9q6ewDr9nu-165" target="19911jeWXW9q6ewDr9nu-121">
          <mxGeometry width="50" height="50" relative="1" as="geometry">
            <mxPoint x="269" y="269.5" as="sourcePoint" />
            <mxPoint x="319" y="219.5" as="targetPoint" />
          </mxGeometry>
        </mxCell>
        <mxCell id="19911jeWXW9q6ewDr9nu-311" value="" style="endArrow=none;html=1;rounded=1;exitX=0.5;exitY=1;exitDx=0;exitDy=0;entryX=0.5;entryY=0;entryDx=0;entryDy=0;" edge="1" parent="1" source="19911jeWXW9q6ewDr9nu-113" target="19911jeWXW9q6ewDr9nu-384">
          <mxGeometry width="50" height="50" relative="1" as="geometry">
            <mxPoint x="513" y="140.5" as="sourcePoint" />
            <mxPoint x="796" y="142.5" as="targetPoint" />
          </mxGeometry>
        </mxCell>
        <mxCell id="19911jeWXW9q6ewDr9nu-384" value="S" style="ellipse;whiteSpace=wrap;html=1;aspect=fixed;rounded=1;" vertex="1" parent="1">
          <mxGeometry x="570" y="153" width="30" height="30" as="geometry" />
        </mxCell>
        <mxCell id="19911jeWXW9q6ewDr9nu-394" value="m" style="ellipse;whiteSpace=wrap;html=1;aspect=fixed;rounded=1;" vertex="1" parent="1">
          <mxGeometry x="535" y="225" width="30" height="30" as="geometry" />
        </mxCell>
        <mxCell id="19911jeWXW9q6ewDr9nu-395" value="{" style="ellipse;whiteSpace=wrap;html=1;aspect=fixed;rounded=1;" vertex="1" parent="1">
          <mxGeometry x="582" y="223.5" width="30" height="30" as="geometry" />
        </mxCell>
        <mxCell id="19911jeWXW9q6ewDr9nu-396" value="N" style="ellipse;whiteSpace=wrap;html=1;aspect=fixed;rounded=1;" vertex="1" parent="1">
          <mxGeometry x="629" y="224.5" width="30" height="30" as="geometry" />
        </mxCell>
        <mxCell id="19911jeWXW9q6ewDr9nu-397" value="}" style="ellipse;whiteSpace=wrap;html=1;aspect=fixed;rounded=1;" vertex="1" parent="1">
          <mxGeometry x="678" y="225" width="30" height="30" as="geometry" />
        </mxCell>
        <mxCell id="19911jeWXW9q6ewDr9nu-398" value="i" style="ellipse;whiteSpace=wrap;html=1;aspect=fixed;rounded=1;" vertex="1" parent="1">
          <mxGeometry x="520" y="302" width="30" height="30" as="geometry" />
        </mxCell>
        <mxCell id="19911jeWXW9q6ewDr9nu-399" value="(" style="ellipse;whiteSpace=wrap;html=1;aspect=fixed;rounded=1;" vertex="1" parent="1">
          <mxGeometry x="582" y="302" width="30" height="30" as="geometry" />
        </mxCell>
        <mxCell id="19911jeWXW9q6ewDr9nu-400" value=")" style="ellipse;whiteSpace=wrap;html=1;aspect=fixed;rounded=1;" vertex="1" parent="1">
          <mxGeometry x="639" y="300" width="30" height="30" as="geometry" />
        </mxCell>
        <mxCell id="19911jeWXW9q6ewDr9nu-401" value=";" style="ellipse;whiteSpace=wrap;html=1;aspect=fixed;rounded=1;" vertex="1" parent="1">
          <mxGeometry x="696" y="302" width="30" height="30" as="geometry" />
        </mxCell>
        <mxCell id="19911jeWXW9q6ewDr9nu-402" value="N" style="ellipse;whiteSpace=wrap;html=1;aspect=fixed;rounded=1;" vertex="1" parent="1">
          <mxGeometry x="753" y="302" width="30" height="30" as="geometry" />
        </mxCell>
        <mxCell id="19911jeWXW9q6ewDr9nu-404" value="=" style="ellipse;whiteSpace=wrap;html=1;aspect=fixed;rounded=1;" vertex="1" parent="1">
          <mxGeometry x="723" y="372" width="30" height="30" as="geometry" />
        </mxCell>
        <mxCell id="19911jeWXW9q6ewDr9nu-405" value="E" style="ellipse;whiteSpace=wrap;html=1;aspect=fixed;rounded=1;" vertex="1" parent="1">
          <mxGeometry x="768" y="372" width="30" height="30" as="geometry" />
        </mxCell>
        <mxCell id="19911jeWXW9q6ewDr9nu-406" value=";" style="ellipse;whiteSpace=wrap;html=1;aspect=fixed;rounded=1;" vertex="1" parent="1">
          <mxGeometry x="815" y="372" width="30" height="30" as="geometry" />
        </mxCell>
        <mxCell id="19911jeWXW9q6ewDr9nu-407" value="i" style="ellipse;whiteSpace=wrap;html=1;aspect=fixed;rounded=1;" vertex="1" parent="1">
          <mxGeometry x="678" y="372" width="30" height="30" as="geometry" />
        </mxCell>
        <mxCell id="19911jeWXW9q6ewDr9nu-409" value="t" style="ellipse;whiteSpace=wrap;html=1;aspect=fixed;rounded=1;" vertex="1" parent="1">
          <mxGeometry x="631" y="372" width="30" height="30" as="geometry" />
        </mxCell>
        <mxCell id="19911jeWXW9q6ewDr9nu-411" value="N" style="ellipse;whiteSpace=wrap;html=1;aspect=fixed;rounded=1;" vertex="1" parent="1">
          <mxGeometry x="862" y="372" width="30" height="30" as="geometry" />
        </mxCell>
        <mxCell id="19911jeWXW9q6ewDr9nu-412" value="" style="endArrow=none;html=1;rounded=1;entryX=0.5;entryY=1;entryDx=0;entryDy=0;exitX=0.5;exitY=0;exitDx=0;exitDy=0;" edge="1" parent="1" source="19911jeWXW9q6ewDr9nu-394" target="19911jeWXW9q6ewDr9nu-384">
          <mxGeometry width="50" height="50" relative="1" as="geometry">
            <mxPoint x="424" y="389.5" as="sourcePoint" />
            <mxPoint x="474" y="339.5" as="targetPoint" />
          </mxGeometry>
        </mxCell>
        <mxCell id="19911jeWXW9q6ewDr9nu-413" value="" style="endArrow=none;html=1;rounded=1;entryX=0.5;entryY=1;entryDx=0;entryDy=0;exitX=0.5;exitY=0;exitDx=0;exitDy=0;" edge="1" parent="1" source="19911jeWXW9q6ewDr9nu-395" target="19911jeWXW9q6ewDr9nu-384">
          <mxGeometry width="50" height="50" relative="1" as="geometry">
            <mxPoint x="452" y="421.5" as="sourcePoint" />
            <mxPoint x="502" y="371.5" as="targetPoint" />
          </mxGeometry>
        </mxCell>
        <mxCell id="19911jeWXW9q6ewDr9nu-414" value="" style="endArrow=none;html=1;rounded=1;entryX=0.5;entryY=1;entryDx=0;entryDy=0;exitX=0.5;exitY=0;exitDx=0;exitDy=0;" edge="1" parent="1" source="19911jeWXW9q6ewDr9nu-396" target="19911jeWXW9q6ewDr9nu-384">
          <mxGeometry width="50" height="50" relative="1" as="geometry">
            <mxPoint x="646" y="203" as="sourcePoint" />
            <mxPoint x="696" y="153" as="targetPoint" />
          </mxGeometry>
        </mxCell>
        <mxCell id="19911jeWXW9q6ewDr9nu-415" value="" style="endArrow=none;html=1;rounded=1;entryX=0.5;entryY=1;entryDx=0;entryDy=0;exitX=0.5;exitY=0;exitDx=0;exitDy=0;" edge="1" parent="1" source="19911jeWXW9q6ewDr9nu-397" target="19911jeWXW9q6ewDr9nu-384">
          <mxGeometry width="50" height="50" relative="1" as="geometry">
            <mxPoint x="592" y="320.5" as="sourcePoint" />
            <mxPoint x="642" y="270.5" as="targetPoint" />
          </mxGeometry>
        </mxCell>
        <mxCell id="19911jeWXW9q6ewDr9nu-416" value="" style="endArrow=none;html=1;rounded=1;entryX=0.5;entryY=1;entryDx=0;entryDy=0;exitX=0.5;exitY=0;exitDx=0;exitDy=0;" edge="1" parent="1" source="19911jeWXW9q6ewDr9nu-398" target="19911jeWXW9q6ewDr9nu-396">
          <mxGeometry width="50" height="50" relative="1" as="geometry">
            <mxPoint x="600" y="309.75" as="sourcePoint" />
            <mxPoint x="650" y="259.75" as="targetPoint" />
          </mxGeometry>
        </mxCell>
        <mxCell id="19911jeWXW9q6ewDr9nu-417" value="" style="endArrow=none;html=1;rounded=1;entryX=0.5;entryY=1;entryDx=0;entryDy=0;exitX=0.5;exitY=0;exitDx=0;exitDy=0;" edge="1" parent="1" source="19911jeWXW9q6ewDr9nu-399" target="19911jeWXW9q6ewDr9nu-396">
          <mxGeometry width="50" height="50" relative="1" as="geometry">
            <mxPoint x="592" y="320.5" as="sourcePoint" />
            <mxPoint x="642" y="270.5" as="targetPoint" />
          </mxGeometry>
        </mxCell>
        <mxCell id="19911jeWXW9q6ewDr9nu-418" value="" style="endArrow=none;html=1;rounded=1;entryX=0.5;entryY=1;entryDx=0;entryDy=0;exitX=0.5;exitY=0;exitDx=0;exitDy=0;" edge="1" parent="1" source="19911jeWXW9q6ewDr9nu-400" target="19911jeWXW9q6ewDr9nu-396">
          <mxGeometry width="50" height="50" relative="1" as="geometry">
            <mxPoint x="624" y="340.5" as="sourcePoint" />
            <mxPoint x="676" y="272.5" as="targetPoint" />
          </mxGeometry>
        </mxCell>
        <mxCell id="19911jeWXW9q6ewDr9nu-419" value="" style="endArrow=none;html=1;rounded=1;entryX=0.5;entryY=1;entryDx=0;entryDy=0;exitX=0.5;exitY=0;exitDx=0;exitDy=0;" edge="1" parent="1" source="19911jeWXW9q6ewDr9nu-401" target="19911jeWXW9q6ewDr9nu-396">
          <mxGeometry width="50" height="50" relative="1" as="geometry">
            <mxPoint x="681" y="312.5" as="sourcePoint" />
            <mxPoint x="731" y="262.5" as="targetPoint" />
          </mxGeometry>
        </mxCell>
        <mxCell id="19911jeWXW9q6ewDr9nu-420" value="" style="endArrow=none;html=1;rounded=1;entryX=0.5;entryY=1;entryDx=0;entryDy=0;exitX=0.5;exitY=0;exitDx=0;exitDy=0;" edge="1" parent="1" source="19911jeWXW9q6ewDr9nu-402" target="19911jeWXW9q6ewDr9nu-396">
          <mxGeometry width="50" height="50" relative="1" as="geometry">
            <mxPoint x="592" y="320.5" as="sourcePoint" />
            <mxPoint x="642" y="270.5" as="targetPoint" />
          </mxGeometry>
        </mxCell>
        <mxCell id="19911jeWXW9q6ewDr9nu-421" value="" style="endArrow=none;html=1;rounded=1;entryX=0.5;entryY=1;entryDx=0;entryDy=0;exitX=0.5;exitY=0;exitDx=0;exitDy=0;" edge="1" parent="1" source="19911jeWXW9q6ewDr9nu-409" target="19911jeWXW9q6ewDr9nu-402">
          <mxGeometry width="50" height="50" relative="1" as="geometry">
            <mxPoint x="654" y="394.5" as="sourcePoint" />
            <mxPoint x="744" y="336.5" as="targetPoint" />
          </mxGeometry>
        </mxCell>
        <mxCell id="19911jeWXW9q6ewDr9nu-423" value="" style="endArrow=none;html=1;rounded=1;entryX=0.5;entryY=1;entryDx=0;entryDy=0;exitX=0.5;exitY=0;exitDx=0;exitDy=0;" edge="1" parent="1" source="19911jeWXW9q6ewDr9nu-407" target="19911jeWXW9q6ewDr9nu-402">
          <mxGeometry width="50" height="50" relative="1" as="geometry">
            <mxPoint x="579" y="501.5" as="sourcePoint" />
            <mxPoint x="629" y="451.5" as="targetPoint" />
          </mxGeometry>
        </mxCell>
        <mxCell id="19911jeWXW9q6ewDr9nu-425" value="" style="endArrow=none;html=1;rounded=1;entryX=0.5;entryY=1;entryDx=0;entryDy=0;exitX=0.5;exitY=0;exitDx=0;exitDy=0;" edge="1" parent="1" source="19911jeWXW9q6ewDr9nu-404" target="19911jeWXW9q6ewDr9nu-402">
          <mxGeometry width="50" height="50" relative="1" as="geometry">
            <mxPoint x="696" y="482.5" as="sourcePoint" />
            <mxPoint x="746" y="432.5" as="targetPoint" />
          </mxGeometry>
        </mxCell>
        <mxCell id="19911jeWXW9q6ewDr9nu-426" value="" style="endArrow=none;html=1;rounded=1;entryX=0.5;entryY=1;entryDx=0;entryDy=0;exitX=0.5;exitY=0;exitDx=0;exitDy=0;" edge="1" parent="1" source="19911jeWXW9q6ewDr9nu-405" target="19911jeWXW9q6ewDr9nu-402">
          <mxGeometry width="50" height="50" relative="1" as="geometry">
            <mxPoint x="714" y="499.5" as="sourcePoint" />
            <mxPoint x="764" y="449.5" as="targetPoint" />
          </mxGeometry>
        </mxCell>
        <mxCell id="19911jeWXW9q6ewDr9nu-427" value="" style="endArrow=none;html=1;rounded=1;entryX=0.5;entryY=1;entryDx=0;entryDy=0;exitX=0.5;exitY=0;exitDx=0;exitDy=0;" edge="1" parent="1" source="19911jeWXW9q6ewDr9nu-406" target="19911jeWXW9q6ewDr9nu-402">
          <mxGeometry width="50" height="50" relative="1" as="geometry">
            <mxPoint x="761" y="481.5" as="sourcePoint" />
            <mxPoint x="811" y="431.5" as="targetPoint" />
          </mxGeometry>
        </mxCell>
        <mxCell id="19911jeWXW9q6ewDr9nu-428" value="" style="endArrow=none;html=1;rounded=1;entryX=0.5;entryY=1;entryDx=0;entryDy=0;exitX=0.5;exitY=0;exitDx=0;exitDy=0;" edge="1" parent="1" source="19911jeWXW9q6ewDr9nu-411" target="19911jeWXW9q6ewDr9nu-402">
          <mxGeometry width="50" height="50" relative="1" as="geometry">
            <mxPoint x="882" y="320.5" as="sourcePoint" />
            <mxPoint x="932" y="270.5" as="targetPoint" />
          </mxGeometry>
        </mxCell>
        <mxCell id="19911jeWXW9q6ewDr9nu-429" value="i" style="ellipse;whiteSpace=wrap;html=1;aspect=fixed;rounded=1;" vertex="1" parent="1">
          <mxGeometry x="753" y="446.5" width="30" height="30" as="geometry" />
        </mxCell>
        <mxCell id="19911jeWXW9q6ewDr9nu-430" value="t" style="ellipse;whiteSpace=wrap;html=1;aspect=fixed;rounded=1;" vertex="1" parent="1">
          <mxGeometry x="804" y="446.5" width="30" height="30" as="geometry" />
        </mxCell>
        <mxCell id="19911jeWXW9q6ewDr9nu-431" value="i" style="ellipse;whiteSpace=wrap;html=1;aspect=fixed;rounded=1;" vertex="1" parent="1">
          <mxGeometry x="851" y="446.5" width="30" height="30" as="geometry" />
        </mxCell>
        <mxCell id="19911jeWXW9q6ewDr9nu-432" value="=" style="ellipse;whiteSpace=wrap;html=1;aspect=fixed;rounded=1;" vertex="1" parent="1">
          <mxGeometry x="903" y="446.5" width="30" height="30" as="geometry" />
        </mxCell>
        <mxCell id="19911jeWXW9q6ewDr9nu-433" value="E" style="ellipse;whiteSpace=wrap;html=1;aspect=fixed;rounded=1;" vertex="1" parent="1">
          <mxGeometry x="954" y="446.5" width="30" height="30" as="geometry" />
        </mxCell>
        <mxCell id="19911jeWXW9q6ewDr9nu-434" value=";" style="ellipse;whiteSpace=wrap;html=1;aspect=fixed;rounded=1;" vertex="1" parent="1">
          <mxGeometry x="997" y="446.5" width="30" height="30" as="geometry" />
        </mxCell>
        <mxCell id="19911jeWXW9q6ewDr9nu-435" value="" style="endArrow=none;html=1;rounded=1;entryX=0.5;entryY=1;entryDx=0;entryDy=0;exitX=0.5;exitY=0;exitDx=0;exitDy=0;" edge="1" parent="1" source="19911jeWXW9q6ewDr9nu-429" target="19911jeWXW9q6ewDr9nu-405">
          <mxGeometry width="50" height="50" relative="1" as="geometry">
            <mxPoint x="822" y="320.5" as="sourcePoint" />
            <mxPoint x="872" y="270.5" as="targetPoint" />
          </mxGeometry>
        </mxCell>
        <mxCell id="19911jeWXW9q6ewDr9nu-436" value="N" style="ellipse;whiteSpace=wrap;html=1;aspect=fixed;rounded=1;" vertex="1" parent="1">
          <mxGeometry x="1179" y="505.5" width="30" height="30" as="geometry" />
        </mxCell>
        <mxCell id="19911jeWXW9q6ewDr9nu-437" value="" style="endArrow=none;html=1;rounded=1;exitX=0.5;exitY=0;exitDx=0;exitDy=0;entryX=0.5;entryY=1;entryDx=0;entryDy=0;" edge="1" parent="1" source="19911jeWXW9q6ewDr9nu-430" target="19911jeWXW9q6ewDr9nu-411">
          <mxGeometry width="50" height="50" relative="1" as="geometry">
            <mxPoint x="864" y="414.5" as="sourcePoint" />
            <mxPoint x="914" y="364.5" as="targetPoint" />
          </mxGeometry>
        </mxCell>
        <mxCell id="19911jeWXW9q6ewDr9nu-438" value="" style="endArrow=none;html=1;rounded=1;exitX=0.5;exitY=0;exitDx=0;exitDy=0;entryX=0.5;entryY=1;entryDx=0;entryDy=0;" edge="1" parent="1" source="19911jeWXW9q6ewDr9nu-431" target="19911jeWXW9q6ewDr9nu-411">
          <mxGeometry width="50" height="50" relative="1" as="geometry">
            <mxPoint x="864" y="414.5" as="sourcePoint" />
            <mxPoint x="914" y="364.5" as="targetPoint" />
          </mxGeometry>
        </mxCell>
        <mxCell id="19911jeWXW9q6ewDr9nu-439" value="" style="endArrow=none;html=1;rounded=1;entryX=0.5;entryY=1;entryDx=0;entryDy=0;exitX=0.5;exitY=0;exitDx=0;exitDy=0;" edge="1" parent="1" source="19911jeWXW9q6ewDr9nu-432" target="19911jeWXW9q6ewDr9nu-411">
          <mxGeometry width="50" height="50" relative="1" as="geometry">
            <mxPoint x="915" y="543.5" as="sourcePoint" />
            <mxPoint x="965" y="493.5" as="targetPoint" />
          </mxGeometry>
        </mxCell>
        <mxCell id="19911jeWXW9q6ewDr9nu-440" value="" style="endArrow=none;html=1;rounded=1;entryX=0.5;entryY=1;entryDx=0;entryDy=0;exitX=0.5;exitY=0;exitDx=0;exitDy=0;" edge="1" parent="1" source="19911jeWXW9q6ewDr9nu-433" target="19911jeWXW9q6ewDr9nu-411">
          <mxGeometry width="50" height="50" relative="1" as="geometry">
            <mxPoint x="844" y="548.5" as="sourcePoint" />
            <mxPoint x="894" y="498.5" as="targetPoint" />
          </mxGeometry>
        </mxCell>
        <mxCell id="19911jeWXW9q6ewDr9nu-441" value="" style="endArrow=none;html=1;rounded=1;entryX=0.5;entryY=1;entryDx=0;entryDy=0;exitX=0.5;exitY=0;exitDx=0;exitDy=0;" edge="1" parent="1" source="19911jeWXW9q6ewDr9nu-434" target="19911jeWXW9q6ewDr9nu-411">
          <mxGeometry width="50" height="50" relative="1" as="geometry">
            <mxPoint x="920" y="557.5" as="sourcePoint" />
            <mxPoint x="970" y="507.5" as="targetPoint" />
          </mxGeometry>
        </mxCell>
        <mxCell id="19911jeWXW9q6ewDr9nu-442" value="" style="endArrow=none;html=1;rounded=1;exitX=0.5;exitY=1;exitDx=0;exitDy=0;entryX=0.5;entryY=0;entryDx=0;entryDy=0;" edge="1" parent="1" source="19911jeWXW9q6ewDr9nu-411" target="19911jeWXW9q6ewDr9nu-752">
          <mxGeometry width="50" height="50" relative="1" as="geometry">
            <mxPoint x="964" y="395.5" as="sourcePoint" />
            <mxPoint x="1063" y="405" as="targetPoint" />
          </mxGeometry>
        </mxCell>
        <mxCell id="19911jeWXW9q6ewDr9nu-443" value="i" style="ellipse;whiteSpace=wrap;html=1;aspect=fixed;rounded=1;" vertex="1" parent="1">
          <mxGeometry x="826" y="523.5" width="30" height="30" as="geometry" />
        </mxCell>
        <mxCell id="19911jeWXW9q6ewDr9nu-444" value="(" style="ellipse;whiteSpace=wrap;html=1;aspect=fixed;rounded=1;" vertex="1" parent="1">
          <mxGeometry x="873" y="523.5" width="30" height="30" as="geometry" />
        </mxCell>
        <mxCell id="19911jeWXW9q6ewDr9nu-445" value="W" style="ellipse;whiteSpace=wrap;html=1;aspect=fixed;rounded=1;" vertex="1" parent="1">
          <mxGeometry x="920" y="523.5" width="30" height="30" as="geometry" />
        </mxCell>
        <mxCell id="19911jeWXW9q6ewDr9nu-446" value=")" style="ellipse;whiteSpace=wrap;html=1;aspect=fixed;rounded=1;" vertex="1" parent="1">
          <mxGeometry x="967" y="523.5" width="30" height="30" as="geometry" />
        </mxCell>
        <mxCell id="19911jeWXW9q6ewDr9nu-448" value="i" style="ellipse;whiteSpace=wrap;html=1;aspect=fixed;rounded=1;" vertex="1" parent="1">
          <mxGeometry x="920" y="577.5" width="30" height="30" as="geometry" />
        </mxCell>
        <mxCell id="19911jeWXW9q6ewDr9nu-450" value="" style="endArrow=none;html=1;rounded=1;entryX=0.5;entryY=1;entryDx=0;entryDy=0;exitX=0.5;exitY=0;exitDx=0;exitDy=0;" edge="1" parent="1" source="19911jeWXW9q6ewDr9nu-443" target="19911jeWXW9q6ewDr9nu-433">
          <mxGeometry width="50" height="50" relative="1" as="geometry">
            <mxPoint x="864" y="510.5" as="sourcePoint" />
            <mxPoint x="914" y="460.5" as="targetPoint" />
          </mxGeometry>
        </mxCell>
        <mxCell id="19911jeWXW9q6ewDr9nu-451" value="" style="endArrow=none;html=1;rounded=1;entryX=0.5;entryY=1;entryDx=0;entryDy=0;exitX=0.5;exitY=0;exitDx=0;exitDy=0;" edge="1" parent="1" source="19911jeWXW9q6ewDr9nu-444" target="19911jeWXW9q6ewDr9nu-433">
          <mxGeometry width="50" height="50" relative="1" as="geometry">
            <mxPoint x="797" y="625.5" as="sourcePoint" />
            <mxPoint x="847" y="575.5" as="targetPoint" />
          </mxGeometry>
        </mxCell>
        <mxCell id="19911jeWXW9q6ewDr9nu-452" value="" style="endArrow=none;html=1;rounded=1;entryX=0.5;entryY=1;entryDx=0;entryDy=0;exitX=0.5;exitY=0;exitDx=0;exitDy=0;" edge="1" parent="1" source="19911jeWXW9q6ewDr9nu-445" target="19911jeWXW9q6ewDr9nu-433">
          <mxGeometry width="50" height="50" relative="1" as="geometry">
            <mxPoint x="761" y="635.5" as="sourcePoint" />
            <mxPoint x="811" y="585.5" as="targetPoint" />
          </mxGeometry>
        </mxCell>
        <mxCell id="19911jeWXW9q6ewDr9nu-453" value="" style="endArrow=none;html=1;rounded=1;entryX=0.5;entryY=1;entryDx=0;entryDy=0;exitX=0.5;exitY=0;exitDx=0;exitDy=0;" edge="1" parent="1" source="19911jeWXW9q6ewDr9nu-446" target="19911jeWXW9q6ewDr9nu-433">
          <mxGeometry width="50" height="50" relative="1" as="geometry">
            <mxPoint x="811" y="645.5" as="sourcePoint" />
            <mxPoint x="861" y="595.5" as="targetPoint" />
          </mxGeometry>
        </mxCell>
        <mxCell id="19911jeWXW9q6ewDr9nu-454" value="" style="endArrow=none;html=1;rounded=1;entryX=0.5;entryY=1;entryDx=0;entryDy=0;exitX=0.5;exitY=0;exitDx=0;exitDy=0;" edge="1" parent="1" source="19911jeWXW9q6ewDr9nu-448" target="19911jeWXW9q6ewDr9nu-445">
          <mxGeometry width="50" height="50" relative="1" as="geometry">
            <mxPoint x="811" y="645.5" as="sourcePoint" />
            <mxPoint x="861" y="595.5" as="targetPoint" />
          </mxGeometry>
        </mxCell>
        <mxCell id="19911jeWXW9q6ewDr9nu-457" value="=" style="ellipse;whiteSpace=wrap;html=1;aspect=fixed;rounded=1;" vertex="1" parent="1">
          <mxGeometry x="1225" y="565.5" width="30" height="30" as="geometry" />
        </mxCell>
        <mxCell id="19911jeWXW9q6ewDr9nu-458" value="E" style="ellipse;whiteSpace=wrap;html=1;aspect=fixed;rounded=1;" vertex="1" parent="1">
          <mxGeometry x="1268" y="565.5" width="30" height="30" as="geometry" />
        </mxCell>
        <mxCell id="19911jeWXW9q6ewDr9nu-459" value="i" style="ellipse;whiteSpace=wrap;html=1;aspect=fixed;rounded=1;" vertex="1" parent="1">
          <mxGeometry x="1182" y="565.5" width="30" height="30" as="geometry" />
        </mxCell>
        <mxCell id="19911jeWXW9q6ewDr9nu-460" value="t" style="ellipse;whiteSpace=wrap;html=1;aspect=fixed;rounded=1;" vertex="1" parent="1">
          <mxGeometry x="1138" y="563" width="30" height="30" as="geometry" />
        </mxCell>
        <mxCell id="19911jeWXW9q6ewDr9nu-461" value="i" style="ellipse;whiteSpace=wrap;html=1;aspect=fixed;rounded=1;" vertex="1" parent="1">
          <mxGeometry x="1268" y="623.5" width="30" height="30" as="geometry" />
        </mxCell>
        <mxCell id="19911jeWXW9q6ewDr9nu-462" value="" style="endArrow=none;html=1;rounded=1;entryX=0.5;entryY=1;entryDx=0;entryDy=0;exitX=0.5;exitY=0;exitDx=0;exitDy=0;" edge="1" parent="1" source="19911jeWXW9q6ewDr9nu-461" target="19911jeWXW9q6ewDr9nu-458">
          <mxGeometry width="50" height="50" relative="1" as="geometry">
            <mxPoint x="1367" y="514" as="sourcePoint" />
            <mxPoint x="1417" y="464" as="targetPoint" />
          </mxGeometry>
        </mxCell>
        <mxCell id="19911jeWXW9q6ewDr9nu-463" value=";" style="ellipse;whiteSpace=wrap;html=1;aspect=fixed;rounded=1;" vertex="1" parent="1">
          <mxGeometry x="1310" y="565.5" width="30" height="30" as="geometry" />
        </mxCell>
        <mxCell id="19911jeWXW9q6ewDr9nu-464" value="" style="endArrow=none;html=1;rounded=1;entryX=0.5;entryY=1;entryDx=0;entryDy=0;exitX=0.5;exitY=0;exitDx=0;exitDy=0;" edge="1" parent="1" source="19911jeWXW9q6ewDr9nu-460" target="19911jeWXW9q6ewDr9nu-436">
          <mxGeometry width="50" height="50" relative="1" as="geometry">
            <mxPoint x="1146" y="566" as="sourcePoint" />
            <mxPoint x="1166" y="675" as="targetPoint" />
          </mxGeometry>
        </mxCell>
        <mxCell id="19911jeWXW9q6ewDr9nu-465" value="" style="endArrow=none;html=1;rounded=1;entryX=0.5;entryY=1;entryDx=0;entryDy=0;exitX=0.5;exitY=0;exitDx=0;exitDy=0;" edge="1" parent="1" source="19911jeWXW9q6ewDr9nu-459" target="19911jeWXW9q6ewDr9nu-436">
          <mxGeometry width="50" height="50" relative="1" as="geometry">
            <mxPoint x="1178" y="644" as="sourcePoint" />
            <mxPoint x="1228" y="594" as="targetPoint" />
          </mxGeometry>
        </mxCell>
        <mxCell id="19911jeWXW9q6ewDr9nu-466" value="" style="endArrow=none;html=1;rounded=1;entryX=0.5;entryY=1;entryDx=0;entryDy=0;exitX=0.5;exitY=0;exitDx=0;exitDy=0;" edge="1" parent="1" source="19911jeWXW9q6ewDr9nu-457" target="19911jeWXW9q6ewDr9nu-436">
          <mxGeometry width="50" height="50" relative="1" as="geometry">
            <mxPoint x="1248" y="636" as="sourcePoint" />
            <mxPoint x="1239" y="536" as="targetPoint" />
          </mxGeometry>
        </mxCell>
        <mxCell id="19911jeWXW9q6ewDr9nu-467" value="" style="endArrow=none;html=1;rounded=1;entryX=0.5;entryY=1;entryDx=0;entryDy=0;exitX=0.5;exitY=0;exitDx=0;exitDy=0;" edge="1" parent="1" source="19911jeWXW9q6ewDr9nu-458" target="19911jeWXW9q6ewDr9nu-436">
          <mxGeometry width="50" height="50" relative="1" as="geometry">
            <mxPoint x="1213" y="701" as="sourcePoint" />
            <mxPoint x="1263" y="651" as="targetPoint" />
          </mxGeometry>
        </mxCell>
        <mxCell id="19911jeWXW9q6ewDr9nu-468" value="" style="endArrow=none;html=1;rounded=1;entryX=0.5;entryY=1;entryDx=0;entryDy=0;exitX=0.5;exitY=0;exitDx=0;exitDy=0;" edge="1" parent="1" source="19911jeWXW9q6ewDr9nu-463" target="19911jeWXW9q6ewDr9nu-436">
          <mxGeometry width="50" height="50" relative="1" as="geometry">
            <mxPoint x="1294" y="547" as="sourcePoint" />
            <mxPoint x="1344" y="497" as="targetPoint" />
          </mxGeometry>
        </mxCell>
        <mxCell id="19911jeWXW9q6ewDr9nu-470" value="N" style="ellipse;whiteSpace=wrap;html=1;aspect=fixed;rounded=1;" vertex="1" parent="1">
          <mxGeometry x="1371" y="565.5" width="30" height="30" as="geometry" />
        </mxCell>
        <mxCell id="19911jeWXW9q6ewDr9nu-471" value="=" style="ellipse;whiteSpace=wrap;html=1;aspect=fixed;rounded=1;" vertex="1" parent="1">
          <mxGeometry x="1417" y="625.5" width="30" height="30" as="geometry" />
        </mxCell>
        <mxCell id="19911jeWXW9q6ewDr9nu-472" value="E" style="ellipse;whiteSpace=wrap;html=1;aspect=fixed;rounded=1;" vertex="1" parent="1">
          <mxGeometry x="1460" y="625.5" width="30" height="30" as="geometry" />
        </mxCell>
        <mxCell id="19911jeWXW9q6ewDr9nu-473" value="i" style="ellipse;whiteSpace=wrap;html=1;aspect=fixed;rounded=1;" vertex="1" parent="1">
          <mxGeometry x="1374" y="625.5" width="30" height="30" as="geometry" />
        </mxCell>
        <mxCell id="19911jeWXW9q6ewDr9nu-474" value="t" style="ellipse;whiteSpace=wrap;html=1;aspect=fixed;rounded=1;" vertex="1" parent="1">
          <mxGeometry x="1329" y="625.5" width="30" height="30" as="geometry" />
        </mxCell>
        <mxCell id="19911jeWXW9q6ewDr9nu-475" value="i" style="ellipse;whiteSpace=wrap;html=1;aspect=fixed;rounded=1;" vertex="1" parent="1">
          <mxGeometry x="1460" y="683.5" width="30" height="30" as="geometry" />
        </mxCell>
        <mxCell id="19911jeWXW9q6ewDr9nu-476" value="" style="endArrow=none;html=1;rounded=1;entryX=0.5;entryY=1;entryDx=0;entryDy=0;exitX=0.5;exitY=0;exitDx=0;exitDy=0;" edge="1" parent="1" source="19911jeWXW9q6ewDr9nu-475" target="19911jeWXW9q6ewDr9nu-472">
          <mxGeometry width="50" height="50" relative="1" as="geometry">
            <mxPoint x="1559" y="574" as="sourcePoint" />
            <mxPoint x="1609" y="524" as="targetPoint" />
          </mxGeometry>
        </mxCell>
        <mxCell id="19911jeWXW9q6ewDr9nu-477" value=";" style="ellipse;whiteSpace=wrap;html=1;aspect=fixed;rounded=1;" vertex="1" parent="1">
          <mxGeometry x="1509" y="625.5" width="30" height="30" as="geometry" />
        </mxCell>
        <mxCell id="19911jeWXW9q6ewDr9nu-478" value="" style="endArrow=none;html=1;rounded=1;entryX=0.5;entryY=1;entryDx=0;entryDy=0;exitX=0.5;exitY=0;exitDx=0;exitDy=0;" edge="1" parent="1" source="19911jeWXW9q6ewDr9nu-474" target="19911jeWXW9q6ewDr9nu-470">
          <mxGeometry width="50" height="50" relative="1" as="geometry">
            <mxPoint x="1308" y="785" as="sourcePoint" />
            <mxPoint x="1358" y="735" as="targetPoint" />
          </mxGeometry>
        </mxCell>
        <mxCell id="19911jeWXW9q6ewDr9nu-479" value="" style="endArrow=none;html=1;rounded=1;entryX=0.5;entryY=1;entryDx=0;entryDy=0;exitX=0.5;exitY=0;exitDx=0;exitDy=0;" edge="1" parent="1" source="19911jeWXW9q6ewDr9nu-473" target="19911jeWXW9q6ewDr9nu-470">
          <mxGeometry width="50" height="50" relative="1" as="geometry">
            <mxPoint x="1370" y="704" as="sourcePoint" />
            <mxPoint x="1420" y="654" as="targetPoint" />
          </mxGeometry>
        </mxCell>
        <mxCell id="19911jeWXW9q6ewDr9nu-480" value="" style="endArrow=none;html=1;rounded=1;entryX=0.5;entryY=1;entryDx=0;entryDy=0;exitX=0.5;exitY=0;exitDx=0;exitDy=0;" edge="1" parent="1" source="19911jeWXW9q6ewDr9nu-471" target="19911jeWXW9q6ewDr9nu-470">
          <mxGeometry width="50" height="50" relative="1" as="geometry">
            <mxPoint x="1440" y="696" as="sourcePoint" />
            <mxPoint x="1431" y="596" as="targetPoint" />
          </mxGeometry>
        </mxCell>
        <mxCell id="19911jeWXW9q6ewDr9nu-481" value="" style="endArrow=none;html=1;rounded=1;entryX=0.5;entryY=1;entryDx=0;entryDy=0;exitX=0.5;exitY=0;exitDx=0;exitDy=0;" edge="1" parent="1" source="19911jeWXW9q6ewDr9nu-472" target="19911jeWXW9q6ewDr9nu-470">
          <mxGeometry width="50" height="50" relative="1" as="geometry">
            <mxPoint x="1405" y="761" as="sourcePoint" />
            <mxPoint x="1455" y="711" as="targetPoint" />
          </mxGeometry>
        </mxCell>
        <mxCell id="19911jeWXW9q6ewDr9nu-482" value="" style="endArrow=none;html=1;rounded=1;entryX=0.5;entryY=1;entryDx=0;entryDy=0;exitX=0.5;exitY=0;exitDx=0;exitDy=0;" edge="1" parent="1" source="19911jeWXW9q6ewDr9nu-477" target="19911jeWXW9q6ewDr9nu-470">
          <mxGeometry width="50" height="50" relative="1" as="geometry">
            <mxPoint x="1486" y="607" as="sourcePoint" />
            <mxPoint x="1536" y="557" as="targetPoint" />
          </mxGeometry>
        </mxCell>
        <mxCell id="19911jeWXW9q6ewDr9nu-483" value="" style="endArrow=none;html=1;rounded=1;entryX=0.5;entryY=1;entryDx=0;entryDy=0;exitX=0.5;exitY=0;exitDx=0;exitDy=0;" edge="1" parent="1" source="19911jeWXW9q6ewDr9nu-470" target="19911jeWXW9q6ewDr9nu-436">
          <mxGeometry width="50" height="50" relative="1" as="geometry">
            <mxPoint x="1334" y="766" as="sourcePoint" />
            <mxPoint x="1384" y="716" as="targetPoint" />
          </mxGeometry>
        </mxCell>
        <mxCell id="19911jeWXW9q6ewDr9nu-485" value="1" style="ellipse;whiteSpace=wrap;html=1;aspect=fixed;rounded=1;" vertex="1" parent="1">
          <mxGeometry x="21" y="380" width="30" height="30" as="geometry" />
        </mxCell>
        <mxCell id="19911jeWXW9q6ewDr9nu-486" value="i" style="ellipse;whiteSpace=wrap;html=1;aspect=fixed;rounded=1;" vertex="1" parent="1">
          <mxGeometry x="10" y="454.5" width="30" height="30" as="geometry" />
        </mxCell>
        <mxCell id="19911jeWXW9q6ewDr9nu-487" value="=" style="ellipse;whiteSpace=wrap;html=1;aspect=fixed;rounded=1;" vertex="1" parent="1">
          <mxGeometry x="62" y="454.5" width="30" height="30" as="geometry" />
        </mxCell>
        <mxCell id="19911jeWXW9q6ewDr9nu-488" value="E" style="ellipse;whiteSpace=wrap;html=1;aspect=fixed;rounded=1;" vertex="1" parent="1">
          <mxGeometry x="113" y="454.5" width="30" height="30" as="geometry" />
        </mxCell>
        <mxCell id="19911jeWXW9q6ewDr9nu-489" value=";" style="ellipse;whiteSpace=wrap;html=1;aspect=fixed;rounded=1;" vertex="1" parent="1">
          <mxGeometry x="164" y="454.5" width="30" height="30" as="geometry" />
        </mxCell>
        <mxCell id="19911jeWXW9q6ewDr9nu-490" value="" style="endArrow=none;html=1;rounded=1;exitX=0.5;exitY=0;exitDx=0;exitDy=0;entryX=0.5;entryY=1;entryDx=0;entryDy=0;" edge="1" parent="1" target="19911jeWXW9q6ewDr9nu-485" source="19911jeWXW9q6ewDr9nu-505">
          <mxGeometry width="50" height="50" relative="1" as="geometry">
            <mxPoint x="-22" y="455" as="sourcePoint" />
            <mxPoint x="73" y="372.5" as="targetPoint" />
          </mxGeometry>
        </mxCell>
        <mxCell id="19911jeWXW9q6ewDr9nu-491" value="" style="endArrow=none;html=1;rounded=1;exitX=0.5;exitY=0;exitDx=0;exitDy=0;entryX=0.5;entryY=1;entryDx=0;entryDy=0;" edge="1" parent="1" source="19911jeWXW9q6ewDr9nu-486" target="19911jeWXW9q6ewDr9nu-485">
          <mxGeometry width="50" height="50" relative="1" as="geometry">
            <mxPoint x="23" y="422.5" as="sourcePoint" />
            <mxPoint x="73" y="372.5" as="targetPoint" />
          </mxGeometry>
        </mxCell>
        <mxCell id="19911jeWXW9q6ewDr9nu-492" value="" style="endArrow=none;html=1;rounded=1;entryX=0.5;entryY=1;entryDx=0;entryDy=0;exitX=0.5;exitY=0;exitDx=0;exitDy=0;" edge="1" parent="1" source="19911jeWXW9q6ewDr9nu-487" target="19911jeWXW9q6ewDr9nu-485">
          <mxGeometry width="50" height="50" relative="1" as="geometry">
            <mxPoint x="74" y="551.5" as="sourcePoint" />
            <mxPoint x="124" y="501.5" as="targetPoint" />
          </mxGeometry>
        </mxCell>
        <mxCell id="19911jeWXW9q6ewDr9nu-493" value="" style="endArrow=none;html=1;rounded=1;entryX=0.5;entryY=1;entryDx=0;entryDy=0;exitX=0.5;exitY=0;exitDx=0;exitDy=0;" edge="1" parent="1" source="19911jeWXW9q6ewDr9nu-488" target="19911jeWXW9q6ewDr9nu-485">
          <mxGeometry width="50" height="50" relative="1" as="geometry">
            <mxPoint x="3" y="556.5" as="sourcePoint" />
            <mxPoint x="53" y="506.5" as="targetPoint" />
          </mxGeometry>
        </mxCell>
        <mxCell id="19911jeWXW9q6ewDr9nu-494" value="" style="endArrow=none;html=1;rounded=1;entryX=0.5;entryY=1;entryDx=0;entryDy=0;exitX=0.5;exitY=0;exitDx=0;exitDy=0;" edge="1" parent="1" source="19911jeWXW9q6ewDr9nu-489" target="19911jeWXW9q6ewDr9nu-485">
          <mxGeometry width="50" height="50" relative="1" as="geometry">
            <mxPoint x="79" y="565.5" as="sourcePoint" />
            <mxPoint x="129" y="515.5" as="targetPoint" />
          </mxGeometry>
        </mxCell>
        <mxCell id="19911jeWXW9q6ewDr9nu-495" value="i" style="ellipse;whiteSpace=wrap;html=1;aspect=fixed;rounded=1;" vertex="1" parent="1">
          <mxGeometry x="-15" y="531.5" width="30" height="30" as="geometry" />
        </mxCell>
        <mxCell id="19911jeWXW9q6ewDr9nu-496" value="(" style="ellipse;whiteSpace=wrap;html=1;aspect=fixed;rounded=1;" vertex="1" parent="1">
          <mxGeometry x="32" y="531.5" width="30" height="30" as="geometry" />
        </mxCell>
        <mxCell id="19911jeWXW9q6ewDr9nu-497" value="W" style="ellipse;whiteSpace=wrap;html=1;aspect=fixed;rounded=1;" vertex="1" parent="1">
          <mxGeometry x="79" y="531.5" width="30" height="30" as="geometry" />
        </mxCell>
        <mxCell id="19911jeWXW9q6ewDr9nu-498" value=")" style="ellipse;whiteSpace=wrap;html=1;aspect=fixed;rounded=1;" vertex="1" parent="1">
          <mxGeometry x="126" y="531.5" width="30" height="30" as="geometry" />
        </mxCell>
        <mxCell id="19911jeWXW9q6ewDr9nu-499" value="," style="ellipse;whiteSpace=wrap;html=1;aspect=fixed;rounded=1;" vertex="1" parent="1">
          <mxGeometry x="79" y="585.5" width="30" height="30" as="geometry" />
        </mxCell>
        <mxCell id="19911jeWXW9q6ewDr9nu-500" value="" style="endArrow=none;html=1;rounded=1;entryX=0.5;entryY=1;entryDx=0;entryDy=0;exitX=0.5;exitY=0;exitDx=0;exitDy=0;" edge="1" parent="1" source="19911jeWXW9q6ewDr9nu-495" target="19911jeWXW9q6ewDr9nu-488">
          <mxGeometry width="50" height="50" relative="1" as="geometry">
            <mxPoint x="23" y="518.5" as="sourcePoint" />
            <mxPoint x="73" y="468.5" as="targetPoint" />
          </mxGeometry>
        </mxCell>
        <mxCell id="19911jeWXW9q6ewDr9nu-501" value="" style="endArrow=none;html=1;rounded=1;entryX=0.5;entryY=1;entryDx=0;entryDy=0;exitX=0.5;exitY=0;exitDx=0;exitDy=0;" edge="1" parent="1" source="19911jeWXW9q6ewDr9nu-496" target="19911jeWXW9q6ewDr9nu-488">
          <mxGeometry width="50" height="50" relative="1" as="geometry">
            <mxPoint x="-44" y="633.5" as="sourcePoint" />
            <mxPoint x="6" y="583.5" as="targetPoint" />
          </mxGeometry>
        </mxCell>
        <mxCell id="19911jeWXW9q6ewDr9nu-502" value="" style="endArrow=none;html=1;rounded=1;entryX=0.5;entryY=1;entryDx=0;entryDy=0;exitX=0.5;exitY=0;exitDx=0;exitDy=0;" edge="1" parent="1" source="19911jeWXW9q6ewDr9nu-497" target="19911jeWXW9q6ewDr9nu-488">
          <mxGeometry width="50" height="50" relative="1" as="geometry">
            <mxPoint x="-80" y="643.5" as="sourcePoint" />
            <mxPoint x="-30" y="593.5" as="targetPoint" />
          </mxGeometry>
        </mxCell>
        <mxCell id="19911jeWXW9q6ewDr9nu-503" value="" style="endArrow=none;html=1;rounded=1;entryX=0.5;entryY=1;entryDx=0;entryDy=0;exitX=0.5;exitY=0;exitDx=0;exitDy=0;" edge="1" parent="1" source="19911jeWXW9q6ewDr9nu-498" target="19911jeWXW9q6ewDr9nu-488">
          <mxGeometry width="50" height="50" relative="1" as="geometry">
            <mxPoint x="-30" y="653.5" as="sourcePoint" />
            <mxPoint x="20" y="603.5" as="targetPoint" />
          </mxGeometry>
        </mxCell>
        <mxCell id="19911jeWXW9q6ewDr9nu-504" value="" style="endArrow=none;html=1;rounded=1;entryX=0.5;entryY=1;entryDx=0;entryDy=0;exitX=0.5;exitY=0;exitDx=0;exitDy=0;" edge="1" parent="1" source="19911jeWXW9q6ewDr9nu-499" target="19911jeWXW9q6ewDr9nu-497">
          <mxGeometry width="50" height="50" relative="1" as="geometry">
            <mxPoint x="-30" y="653.5" as="sourcePoint" />
            <mxPoint x="20" y="603.5" as="targetPoint" />
          </mxGeometry>
        </mxCell>
        <mxCell id="19911jeWXW9q6ewDr9nu-505" value="t" style="ellipse;whiteSpace=wrap;html=1;aspect=fixed;rounded=1;" vertex="1" parent="1">
          <mxGeometry x="-42" y="454.5" width="30" height="30" as="geometry" />
        </mxCell>
        <mxCell id="19911jeWXW9q6ewDr9nu-506" value="i" style="ellipse;whiteSpace=wrap;html=1;aspect=fixed;rounded=1;" vertex="1" parent="1">
          <mxGeometry x="32" y="585.5" width="30" height="30" as="geometry" />
        </mxCell>
        <mxCell id="19911jeWXW9q6ewDr9nu-507" value="W" style="ellipse;whiteSpace=wrap;html=1;aspect=fixed;rounded=1;" vertex="1" parent="1">
          <mxGeometry x="126" y="583" width="30" height="30" as="geometry" />
        </mxCell>
        <mxCell id="19911jeWXW9q6ewDr9nu-508" value="i" style="ellipse;whiteSpace=wrap;html=1;aspect=fixed;rounded=1;" vertex="1" parent="1">
          <mxGeometry x="126" y="638" width="30" height="30" as="geometry" />
        </mxCell>
        <mxCell id="19911jeWXW9q6ewDr9nu-509" value="" style="endArrow=none;html=1;rounded=1;entryX=0.5;entryY=1;entryDx=0;entryDy=0;exitX=0.5;exitY=0;exitDx=0;exitDy=0;" edge="1" parent="1" source="19911jeWXW9q6ewDr9nu-506" target="19911jeWXW9q6ewDr9nu-497">
          <mxGeometry width="50" height="50" relative="1" as="geometry">
            <mxPoint x="-35" y="685" as="sourcePoint" />
            <mxPoint x="15" y="635" as="targetPoint" />
          </mxGeometry>
        </mxCell>
        <mxCell id="19911jeWXW9q6ewDr9nu-511" value="" style="endArrow=none;html=1;rounded=1;entryX=0.5;entryY=1;entryDx=0;entryDy=0;exitX=0.5;exitY=0;exitDx=0;exitDy=0;" edge="1" parent="1" source="19911jeWXW9q6ewDr9nu-507" target="19911jeWXW9q6ewDr9nu-497">
          <mxGeometry width="50" height="50" relative="1" as="geometry">
            <mxPoint x="-21" y="653" as="sourcePoint" />
            <mxPoint x="112" y="572" as="targetPoint" />
          </mxGeometry>
        </mxCell>
        <mxCell id="19911jeWXW9q6ewDr9nu-512" value="" style="endArrow=none;html=1;rounded=1;entryX=0.5;entryY=1;entryDx=0;entryDy=0;exitX=0.5;exitY=0;exitDx=0;exitDy=0;" edge="1" parent="1" source="19911jeWXW9q6ewDr9nu-508" target="19911jeWXW9q6ewDr9nu-507">
          <mxGeometry width="50" height="50" relative="1" as="geometry">
            <mxPoint x="54" y="692" as="sourcePoint" />
            <mxPoint x="104" y="642" as="targetPoint" />
          </mxGeometry>
        </mxCell>
        <mxCell id="19911jeWXW9q6ewDr9nu-513" value="N" style="ellipse;whiteSpace=wrap;html=1;aspect=fixed;rounded=1;" vertex="1" parent="1">
          <mxGeometry x="239" y="443" width="30" height="30" as="geometry" />
        </mxCell>
        <mxCell id="19911jeWXW9q6ewDr9nu-514" value="i" style="ellipse;whiteSpace=wrap;html=1;aspect=fixed;rounded=1;" vertex="1" parent="1">
          <mxGeometry x="228" y="517.5" width="30" height="30" as="geometry" />
        </mxCell>
        <mxCell id="19911jeWXW9q6ewDr9nu-515" value="=" style="ellipse;whiteSpace=wrap;html=1;aspect=fixed;rounded=1;" vertex="1" parent="1">
          <mxGeometry x="280" y="517.5" width="30" height="30" as="geometry" />
        </mxCell>
        <mxCell id="19911jeWXW9q6ewDr9nu-516" value="E" style="ellipse;whiteSpace=wrap;html=1;aspect=fixed;rounded=1;" vertex="1" parent="1">
          <mxGeometry x="331" y="517.5" width="30" height="30" as="geometry" />
        </mxCell>
        <mxCell id="19911jeWXW9q6ewDr9nu-517" value=";" style="ellipse;whiteSpace=wrap;html=1;aspect=fixed;rounded=1;" vertex="1" parent="1">
          <mxGeometry x="374" y="516" width="30" height="30" as="geometry" />
        </mxCell>
        <mxCell id="19911jeWXW9q6ewDr9nu-518" value="" style="endArrow=none;html=1;rounded=1;exitX=0.5;exitY=0;exitDx=0;exitDy=0;entryX=0.5;entryY=1;entryDx=0;entryDy=0;" edge="1" parent="1" source="19911jeWXW9q6ewDr9nu-533" target="19911jeWXW9q6ewDr9nu-513">
          <mxGeometry width="50" height="50" relative="1" as="geometry">
            <mxPoint x="196" y="518" as="sourcePoint" />
            <mxPoint x="291" y="435.5" as="targetPoint" />
          </mxGeometry>
        </mxCell>
        <mxCell id="19911jeWXW9q6ewDr9nu-519" value="" style="endArrow=none;html=1;rounded=1;exitX=0.5;exitY=0;exitDx=0;exitDy=0;entryX=0.5;entryY=1;entryDx=0;entryDy=0;" edge="1" parent="1" source="19911jeWXW9q6ewDr9nu-514" target="19911jeWXW9q6ewDr9nu-513">
          <mxGeometry width="50" height="50" relative="1" as="geometry">
            <mxPoint x="241" y="485.5" as="sourcePoint" />
            <mxPoint x="291" y="435.5" as="targetPoint" />
          </mxGeometry>
        </mxCell>
        <mxCell id="19911jeWXW9q6ewDr9nu-520" value="" style="endArrow=none;html=1;rounded=1;entryX=0.5;entryY=1;entryDx=0;entryDy=0;exitX=0.5;exitY=0;exitDx=0;exitDy=0;" edge="1" parent="1" source="19911jeWXW9q6ewDr9nu-515" target="19911jeWXW9q6ewDr9nu-513">
          <mxGeometry width="50" height="50" relative="1" as="geometry">
            <mxPoint x="292" y="614.5" as="sourcePoint" />
            <mxPoint x="342" y="564.5" as="targetPoint" />
          </mxGeometry>
        </mxCell>
        <mxCell id="19911jeWXW9q6ewDr9nu-521" value="" style="endArrow=none;html=1;rounded=1;entryX=0.5;entryY=1;entryDx=0;entryDy=0;exitX=0.5;exitY=0;exitDx=0;exitDy=0;" edge="1" parent="1" source="19911jeWXW9q6ewDr9nu-516" target="19911jeWXW9q6ewDr9nu-513">
          <mxGeometry width="50" height="50" relative="1" as="geometry">
            <mxPoint x="221" y="619.5" as="sourcePoint" />
            <mxPoint x="271" y="569.5" as="targetPoint" />
          </mxGeometry>
        </mxCell>
        <mxCell id="19911jeWXW9q6ewDr9nu-522" value="" style="endArrow=none;html=1;rounded=1;entryX=0.5;entryY=1;entryDx=0;entryDy=0;exitX=0.5;exitY=0;exitDx=0;exitDy=0;" edge="1" parent="1" source="19911jeWXW9q6ewDr9nu-517" target="19911jeWXW9q6ewDr9nu-513">
          <mxGeometry width="50" height="50" relative="1" as="geometry">
            <mxPoint x="297" y="628.5" as="sourcePoint" />
            <mxPoint x="347" y="578.5" as="targetPoint" />
          </mxGeometry>
        </mxCell>
        <mxCell id="19911jeWXW9q6ewDr9nu-523" value="i" style="ellipse;whiteSpace=wrap;html=1;aspect=fixed;rounded=1;" vertex="1" parent="1">
          <mxGeometry x="203" y="594.5" width="30" height="30" as="geometry" />
        </mxCell>
        <mxCell id="19911jeWXW9q6ewDr9nu-524" value="(" style="ellipse;whiteSpace=wrap;html=1;aspect=fixed;rounded=1;" vertex="1" parent="1">
          <mxGeometry x="250" y="594.5" width="30" height="30" as="geometry" />
        </mxCell>
        <mxCell id="19911jeWXW9q6ewDr9nu-525" value="W" style="ellipse;whiteSpace=wrap;html=1;aspect=fixed;rounded=1;" vertex="1" parent="1">
          <mxGeometry x="297" y="594.5" width="30" height="30" as="geometry" />
        </mxCell>
        <mxCell id="19911jeWXW9q6ewDr9nu-526" value=")" style="ellipse;whiteSpace=wrap;html=1;aspect=fixed;rounded=1;" vertex="1" parent="1">
          <mxGeometry x="344" y="594.5" width="30" height="30" as="geometry" />
        </mxCell>
        <mxCell id="19911jeWXW9q6ewDr9nu-527" value="," style="ellipse;whiteSpace=wrap;html=1;aspect=fixed;rounded=1;" vertex="1" parent="1">
          <mxGeometry x="297" y="648.5" width="30" height="30" as="geometry" />
        </mxCell>
        <mxCell id="19911jeWXW9q6ewDr9nu-528" value="" style="endArrow=none;html=1;rounded=1;entryX=0.5;entryY=1;entryDx=0;entryDy=0;exitX=0.5;exitY=0;exitDx=0;exitDy=0;" edge="1" parent="1" source="19911jeWXW9q6ewDr9nu-523" target="19911jeWXW9q6ewDr9nu-516">
          <mxGeometry width="50" height="50" relative="1" as="geometry">
            <mxPoint x="241" y="581.5" as="sourcePoint" />
            <mxPoint x="291" y="531.5" as="targetPoint" />
          </mxGeometry>
        </mxCell>
        <mxCell id="19911jeWXW9q6ewDr9nu-529" value="" style="endArrow=none;html=1;rounded=1;entryX=0.5;entryY=1;entryDx=0;entryDy=0;exitX=0.5;exitY=0;exitDx=0;exitDy=0;" edge="1" parent="1" source="19911jeWXW9q6ewDr9nu-524" target="19911jeWXW9q6ewDr9nu-516">
          <mxGeometry width="50" height="50" relative="1" as="geometry">
            <mxPoint x="174" y="696.5" as="sourcePoint" />
            <mxPoint x="224" y="646.5" as="targetPoint" />
          </mxGeometry>
        </mxCell>
        <mxCell id="19911jeWXW9q6ewDr9nu-530" value="" style="endArrow=none;html=1;rounded=1;entryX=0.5;entryY=1;entryDx=0;entryDy=0;exitX=0.5;exitY=0;exitDx=0;exitDy=0;" edge="1" parent="1" source="19911jeWXW9q6ewDr9nu-525" target="19911jeWXW9q6ewDr9nu-516">
          <mxGeometry width="50" height="50" relative="1" as="geometry">
            <mxPoint x="138" y="706.5" as="sourcePoint" />
            <mxPoint x="188" y="656.5" as="targetPoint" />
          </mxGeometry>
        </mxCell>
        <mxCell id="19911jeWXW9q6ewDr9nu-531" value="" style="endArrow=none;html=1;rounded=1;entryX=0.5;entryY=1;entryDx=0;entryDy=0;exitX=0.5;exitY=0;exitDx=0;exitDy=0;" edge="1" parent="1" source="19911jeWXW9q6ewDr9nu-526" target="19911jeWXW9q6ewDr9nu-516">
          <mxGeometry width="50" height="50" relative="1" as="geometry">
            <mxPoint x="188" y="716.5" as="sourcePoint" />
            <mxPoint x="238" y="666.5" as="targetPoint" />
          </mxGeometry>
        </mxCell>
        <mxCell id="19911jeWXW9q6ewDr9nu-532" value="" style="endArrow=none;html=1;rounded=1;entryX=0.5;entryY=1;entryDx=0;entryDy=0;exitX=0.5;exitY=0;exitDx=0;exitDy=0;" edge="1" parent="1" source="19911jeWXW9q6ewDr9nu-527" target="19911jeWXW9q6ewDr9nu-525">
          <mxGeometry width="50" height="50" relative="1" as="geometry">
            <mxPoint x="188" y="716.5" as="sourcePoint" />
            <mxPoint x="238" y="666.5" as="targetPoint" />
          </mxGeometry>
        </mxCell>
        <mxCell id="19911jeWXW9q6ewDr9nu-533" value="t" style="ellipse;whiteSpace=wrap;html=1;aspect=fixed;rounded=1;" vertex="1" parent="1">
          <mxGeometry x="176" y="517.5" width="30" height="30" as="geometry" />
        </mxCell>
        <mxCell id="19911jeWXW9q6ewDr9nu-534" value="i" style="ellipse;whiteSpace=wrap;html=1;aspect=fixed;rounded=1;" vertex="1" parent="1">
          <mxGeometry x="250" y="648.5" width="30" height="30" as="geometry" />
        </mxCell>
        <mxCell id="19911jeWXW9q6ewDr9nu-535" value="W" style="ellipse;whiteSpace=wrap;html=1;aspect=fixed;rounded=1;" vertex="1" parent="1">
          <mxGeometry x="344" y="646" width="30" height="30" as="geometry" />
        </mxCell>
        <mxCell id="19911jeWXW9q6ewDr9nu-536" value="i" style="ellipse;whiteSpace=wrap;html=1;aspect=fixed;rounded=1;" vertex="1" parent="1">
          <mxGeometry x="344" y="701" width="30" height="30" as="geometry" />
        </mxCell>
        <mxCell id="19911jeWXW9q6ewDr9nu-537" value="" style="endArrow=none;html=1;rounded=1;entryX=0.5;entryY=1;entryDx=0;entryDy=0;exitX=0.5;exitY=0;exitDx=0;exitDy=0;" edge="1" parent="1" source="19911jeWXW9q6ewDr9nu-534" target="19911jeWXW9q6ewDr9nu-525">
          <mxGeometry width="50" height="50" relative="1" as="geometry">
            <mxPoint x="183" y="748" as="sourcePoint" />
            <mxPoint x="233" y="698" as="targetPoint" />
          </mxGeometry>
        </mxCell>
        <mxCell id="19911jeWXW9q6ewDr9nu-538" value="" style="endArrow=none;html=1;rounded=1;entryX=0.5;entryY=1;entryDx=0;entryDy=0;exitX=0.5;exitY=0;exitDx=0;exitDy=0;" edge="1" parent="1" source="19911jeWXW9q6ewDr9nu-535" target="19911jeWXW9q6ewDr9nu-525">
          <mxGeometry width="50" height="50" relative="1" as="geometry">
            <mxPoint x="197" y="716" as="sourcePoint" />
            <mxPoint x="330" y="635" as="targetPoint" />
          </mxGeometry>
        </mxCell>
        <mxCell id="19911jeWXW9q6ewDr9nu-539" value="" style="endArrow=none;html=1;rounded=1;entryX=0.5;entryY=1;entryDx=0;entryDy=0;exitX=0.5;exitY=0;exitDx=0;exitDy=0;" edge="1" parent="1" source="19911jeWXW9q6ewDr9nu-536" target="19911jeWXW9q6ewDr9nu-535">
          <mxGeometry width="50" height="50" relative="1" as="geometry">
            <mxPoint x="272" y="755" as="sourcePoint" />
            <mxPoint x="322" y="705" as="targetPoint" />
          </mxGeometry>
        </mxCell>
        <mxCell id="19911jeWXW9q6ewDr9nu-567" value="1" style="ellipse;whiteSpace=wrap;html=1;aspect=fixed;rounded=1;" vertex="1" parent="1">
          <mxGeometry x="1560" y="625.5" width="30" height="30" as="geometry" />
        </mxCell>
        <mxCell id="19911jeWXW9q6ewDr9nu-568" value="" style="endArrow=none;html=1;rounded=1;entryX=0.5;entryY=1;entryDx=0;entryDy=0;exitX=0.5;exitY=0;exitDx=0;exitDy=0;" edge="1" parent="1" source="19911jeWXW9q6ewDr9nu-567" target="19911jeWXW9q6ewDr9nu-470">
          <mxGeometry width="50" height="50" relative="1" as="geometry">
            <mxPoint x="1543" y="601" as="sourcePoint" />
            <mxPoint x="1593" y="551" as="targetPoint" />
          </mxGeometry>
        </mxCell>
        <mxCell id="19911jeWXW9q6ewDr9nu-569" value="" style="endArrow=none;html=1;rounded=1;entryX=0.5;entryY=1;entryDx=0;entryDy=0;exitX=0.5;exitY=0;exitDx=0;exitDy=0;" edge="1" parent="1" source="19911jeWXW9q6ewDr9nu-513" target="19911jeWXW9q6ewDr9nu-485">
          <mxGeometry width="50" height="50" relative="1" as="geometry">
            <mxPoint x="-55" y="647" as="sourcePoint" />
            <mxPoint x="-5" y="597" as="targetPoint" />
          </mxGeometry>
        </mxCell>
        <mxCell id="19911jeWXW9q6ewDr9nu-570" value="N" style="ellipse;whiteSpace=wrap;html=1;aspect=fixed;rounded=1;" vertex="1" parent="1">
          <mxGeometry x="429" y="516" width="30" height="30" as="geometry" />
        </mxCell>
        <mxCell id="19911jeWXW9q6ewDr9nu-571" value="" style="endArrow=none;html=1;rounded=1;entryX=0.5;entryY=1;entryDx=0;entryDy=0;exitX=0.5;exitY=0;exitDx=0;exitDy=0;" edge="1" parent="1" source="19911jeWXW9q6ewDr9nu-570" target="19911jeWXW9q6ewDr9nu-513">
          <mxGeometry width="50" height="50" relative="1" as="geometry">
            <mxPoint x="453" y="720" as="sourcePoint" />
            <mxPoint x="503" y="670" as="targetPoint" />
          </mxGeometry>
        </mxCell>
        <mxCell id="19911jeWXW9q6ewDr9nu-572" value=";" style="ellipse;whiteSpace=wrap;html=1;aspect=fixed;rounded=1;" vertex="1" parent="1">
          <mxGeometry x="484.75" y="572" width="30" height="30" as="geometry" />
        </mxCell>
        <mxCell id="19911jeWXW9q6ewDr9nu-573" value="z" style="ellipse;whiteSpace=wrap;html=1;aspect=fixed;rounded=1;" vertex="1" parent="1">
          <mxGeometry x="404" y="572" width="30" height="30" as="geometry" />
        </mxCell>
        <mxCell id="19911jeWXW9q6ewDr9nu-574" value="i" style="ellipse;whiteSpace=wrap;html=1;aspect=fixed;rounded=1;" vertex="1" parent="1">
          <mxGeometry x="442" y="572" width="30" height="30" as="geometry" />
        </mxCell>
        <mxCell id="19911jeWXW9q6ewDr9nu-576" value="N" style="ellipse;whiteSpace=wrap;html=1;aspect=fixed;rounded=1;" vertex="1" parent="1">
          <mxGeometry x="532" y="572" width="30" height="30" as="geometry" />
        </mxCell>
        <mxCell id="19911jeWXW9q6ewDr9nu-577" value="" style="endArrow=none;html=1;rounded=1;entryX=0.5;entryY=1;entryDx=0;entryDy=0;exitX=0.5;exitY=0;exitDx=0;exitDy=0;" edge="1" parent="1" source="19911jeWXW9q6ewDr9nu-573" target="19911jeWXW9q6ewDr9nu-570">
          <mxGeometry width="50" height="50" relative="1" as="geometry">
            <mxPoint x="489" y="820" as="sourcePoint" />
            <mxPoint x="539" y="770" as="targetPoint" />
          </mxGeometry>
        </mxCell>
        <mxCell id="19911jeWXW9q6ewDr9nu-578" value="" style="endArrow=none;html=1;rounded=1;entryX=0.5;entryY=1;entryDx=0;entryDy=0;exitX=0.5;exitY=0;exitDx=0;exitDy=0;" edge="1" parent="1" source="19911jeWXW9q6ewDr9nu-574" target="19911jeWXW9q6ewDr9nu-570">
          <mxGeometry width="50" height="50" relative="1" as="geometry">
            <mxPoint x="455" y="706" as="sourcePoint" />
            <mxPoint x="505" y="656" as="targetPoint" />
          </mxGeometry>
        </mxCell>
        <mxCell id="19911jeWXW9q6ewDr9nu-579" value="" style="endArrow=none;html=1;rounded=1;entryX=0.5;entryY=1;entryDx=0;entryDy=0;exitX=0.5;exitY=0;exitDx=0;exitDy=0;" edge="1" parent="1" source="19911jeWXW9q6ewDr9nu-572" target="19911jeWXW9q6ewDr9nu-570">
          <mxGeometry width="50" height="50" relative="1" as="geometry">
            <mxPoint x="520" y="692" as="sourcePoint" />
            <mxPoint x="570" y="642" as="targetPoint" />
          </mxGeometry>
        </mxCell>
        <mxCell id="19911jeWXW9q6ewDr9nu-580" value="" style="endArrow=none;html=1;rounded=1;entryX=0.5;entryY=1;entryDx=0;entryDy=0;exitX=0.5;exitY=0;exitDx=0;exitDy=0;" edge="1" parent="1" source="19911jeWXW9q6ewDr9nu-576" target="19911jeWXW9q6ewDr9nu-570">
          <mxGeometry width="50" height="50" relative="1" as="geometry">
            <mxPoint x="515" y="718" as="sourcePoint" />
            <mxPoint x="565" y="668" as="targetPoint" />
          </mxGeometry>
        </mxCell>
        <mxCell id="19911jeWXW9q6ewDr9nu-581" value=";" style="ellipse;whiteSpace=wrap;html=1;aspect=fixed;rounded=1;" vertex="1" parent="1">
          <mxGeometry x="572.37" y="633" width="30" height="30" as="geometry" />
        </mxCell>
        <mxCell id="19911jeWXW9q6ewDr9nu-582" value="z" style="ellipse;whiteSpace=wrap;html=1;aspect=fixed;rounded=1;" vertex="1" parent="1">
          <mxGeometry x="491.62" y="633" width="30" height="30" as="geometry" />
        </mxCell>
        <mxCell id="19911jeWXW9q6ewDr9nu-583" value="i" style="ellipse;whiteSpace=wrap;html=1;aspect=fixed;rounded=1;" vertex="1" parent="1">
          <mxGeometry x="529.62" y="633" width="30" height="30" as="geometry" />
        </mxCell>
        <mxCell id="19911jeWXW9q6ewDr9nu-585" value="" style="endArrow=none;html=1;rounded=1;entryX=0.5;entryY=1;entryDx=0;entryDy=0;exitX=0.5;exitY=0;exitDx=0;exitDy=0;" edge="1" parent="1" source="19911jeWXW9q6ewDr9nu-582" target="19911jeWXW9q6ewDr9nu-576">
          <mxGeometry width="50" height="50" relative="1" as="geometry">
            <mxPoint x="455" y="732" as="sourcePoint" />
            <mxPoint x="505" y="682" as="targetPoint" />
          </mxGeometry>
        </mxCell>
        <mxCell id="19911jeWXW9q6ewDr9nu-586" value="" style="endArrow=none;html=1;rounded=1;entryX=0.5;entryY=1;entryDx=0;entryDy=0;exitX=0.5;exitY=0;exitDx=0;exitDy=0;" edge="1" parent="1" source="19911jeWXW9q6ewDr9nu-583" target="19911jeWXW9q6ewDr9nu-576">
          <mxGeometry width="50" height="50" relative="1" as="geometry">
            <mxPoint x="480" y="721" as="sourcePoint" />
            <mxPoint x="530" y="671" as="targetPoint" />
          </mxGeometry>
        </mxCell>
        <mxCell id="19911jeWXW9q6ewDr9nu-587" value="" style="endArrow=none;html=1;rounded=1;entryX=0.5;entryY=1;entryDx=0;entryDy=0;exitX=0.5;exitY=0;exitDx=0;exitDy=0;" edge="1" parent="1" source="19911jeWXW9q6ewDr9nu-581" target="19911jeWXW9q6ewDr9nu-576">
          <mxGeometry width="50" height="50" relative="1" as="geometry">
            <mxPoint x="542" y="731" as="sourcePoint" />
            <mxPoint x="592" y="681" as="targetPoint" />
          </mxGeometry>
        </mxCell>
        <mxCell id="19911jeWXW9q6ewDr9nu-588" value="N" style="ellipse;whiteSpace=wrap;html=1;aspect=fixed;rounded=1;" vertex="1" parent="1">
          <mxGeometry x="639" y="618" width="30" height="30" as="geometry" />
        </mxCell>
        <mxCell id="19911jeWXW9q6ewDr9nu-589" value="=" style="ellipse;whiteSpace=wrap;html=1;aspect=fixed;rounded=1;" vertex="1" parent="1">
          <mxGeometry x="679" y="679" width="30" height="30" as="geometry" />
        </mxCell>
        <mxCell id="19911jeWXW9q6ewDr9nu-590" value="E" style="ellipse;whiteSpace=wrap;html=1;aspect=fixed;rounded=1;" vertex="1" parent="1">
          <mxGeometry x="722" y="679" width="30" height="30" as="geometry" />
        </mxCell>
        <mxCell id="19911jeWXW9q6ewDr9nu-591" value=";" style="ellipse;whiteSpace=wrap;html=1;aspect=fixed;rounded=1;" vertex="1" parent="1">
          <mxGeometry x="770" y="679" width="30" height="30" as="geometry" />
        </mxCell>
        <mxCell id="19911jeWXW9q6ewDr9nu-592" value="i" style="ellipse;whiteSpace=wrap;html=1;aspect=fixed;rounded=1;" vertex="1" parent="1">
          <mxGeometry x="641" y="679" width="30" height="30" as="geometry" />
        </mxCell>
        <mxCell id="19911jeWXW9q6ewDr9nu-593" value="t" style="ellipse;whiteSpace=wrap;html=1;aspect=fixed;rounded=1;" vertex="1" parent="1">
          <mxGeometry x="600" y="679" width="30" height="30" as="geometry" />
        </mxCell>
        <mxCell id="19911jeWXW9q6ewDr9nu-595" value="M" style="ellipse;whiteSpace=wrap;html=1;aspect=fixed;rounded=1;" vertex="1" parent="1">
          <mxGeometry x="713" y="732" width="30" height="30" as="geometry" />
        </mxCell>
        <mxCell id="19911jeWXW9q6ewDr9nu-596" value="l" style="ellipse;whiteSpace=wrap;html=1;aspect=fixed;rounded=1;" vertex="1" parent="1">
          <mxGeometry x="671" y="729" width="30" height="30" as="geometry" />
        </mxCell>
        <mxCell id="19911jeWXW9q6ewDr9nu-597" value="E" style="ellipse;whiteSpace=wrap;html=1;aspect=fixed;rounded=1;" vertex="1" parent="1">
          <mxGeometry x="713" y="784" width="30" height="30" as="geometry" />
        </mxCell>
        <mxCell id="19911jeWXW9q6ewDr9nu-598" value="v" style="ellipse;whiteSpace=wrap;html=1;aspect=fixed;rounded=1;" vertex="1" parent="1">
          <mxGeometry x="671" y="779" width="30" height="30" as="geometry" />
        </mxCell>
        <mxCell id="19911jeWXW9q6ewDr9nu-600" value="l" style="ellipse;whiteSpace=wrap;html=1;aspect=fixed;rounded=1;" vertex="1" parent="1">
          <mxGeometry x="713" y="836" width="30" height="30" as="geometry" />
        </mxCell>
        <mxCell id="19911jeWXW9q6ewDr9nu-601" value="" style="endArrow=none;html=1;rounded=1;entryX=0.5;entryY=1;entryDx=0;entryDy=0;exitX=0.5;exitY=0;exitDx=0;exitDy=0;" edge="1" parent="1" source="19911jeWXW9q6ewDr9nu-593" target="19911jeWXW9q6ewDr9nu-588">
          <mxGeometry width="50" height="50" relative="1" as="geometry">
            <mxPoint x="613" y="679" as="sourcePoint" />
            <mxPoint x="619.62" y="725" as="targetPoint" />
          </mxGeometry>
        </mxCell>
        <mxCell id="19911jeWXW9q6ewDr9nu-603" value="" style="endArrow=none;html=1;rounded=1;entryX=0.5;entryY=1;entryDx=0;entryDy=0;exitX=0.5;exitY=0;exitDx=0;exitDy=0;" edge="1" parent="1" source="19911jeWXW9q6ewDr9nu-592" target="19911jeWXW9q6ewDr9nu-588">
          <mxGeometry width="50" height="50" relative="1" as="geometry">
            <mxPoint x="548" y="781" as="sourcePoint" />
            <mxPoint x="598" y="731" as="targetPoint" />
          </mxGeometry>
        </mxCell>
        <mxCell id="19911jeWXW9q6ewDr9nu-604" value="" style="endArrow=none;html=1;rounded=1;entryX=0.5;entryY=1;entryDx=0;entryDy=0;exitX=0.5;exitY=0;exitDx=0;exitDy=0;" edge="1" parent="1" source="19911jeWXW9q6ewDr9nu-589" target="19911jeWXW9q6ewDr9nu-588">
          <mxGeometry width="50" height="50" relative="1" as="geometry">
            <mxPoint x="538" y="793" as="sourcePoint" />
            <mxPoint x="588" y="743" as="targetPoint" />
          </mxGeometry>
        </mxCell>
        <mxCell id="19911jeWXW9q6ewDr9nu-605" value="" style="endArrow=none;html=1;rounded=1;entryX=0.5;entryY=1;entryDx=0;entryDy=0;exitX=0.5;exitY=0;exitDx=0;exitDy=0;" edge="1" parent="1" source="19911jeWXW9q6ewDr9nu-590" target="19911jeWXW9q6ewDr9nu-588">
          <mxGeometry width="50" height="50" relative="1" as="geometry">
            <mxPoint x="549" y="781" as="sourcePoint" />
            <mxPoint x="599" y="731" as="targetPoint" />
          </mxGeometry>
        </mxCell>
        <mxCell id="19911jeWXW9q6ewDr9nu-606" value="" style="endArrow=none;html=1;rounded=1;entryX=0.5;entryY=1;entryDx=0;entryDy=0;exitX=0.5;exitY=0;exitDx=0;exitDy=0;" edge="1" parent="1" source="19911jeWXW9q6ewDr9nu-591" target="19911jeWXW9q6ewDr9nu-588">
          <mxGeometry width="50" height="50" relative="1" as="geometry">
            <mxPoint x="537" y="769" as="sourcePoint" />
            <mxPoint x="587" y="719" as="targetPoint" />
          </mxGeometry>
        </mxCell>
        <mxCell id="19911jeWXW9q6ewDr9nu-607" value="" style="endArrow=none;html=1;rounded=1;entryX=0.5;entryY=1;entryDx=0;entryDy=0;exitX=0.5;exitY=0;exitDx=0;exitDy=0;" edge="1" parent="1" source="19911jeWXW9q6ewDr9nu-616" target="19911jeWXW9q6ewDr9nu-588">
          <mxGeometry width="50" height="50" relative="1" as="geometry">
            <mxPoint x="834" y="679" as="sourcePoint" />
            <mxPoint x="599" y="714" as="targetPoint" />
          </mxGeometry>
        </mxCell>
        <mxCell id="19911jeWXW9q6ewDr9nu-608" value="" style="endArrow=none;html=1;rounded=1;entryX=0.5;entryY=1;entryDx=0;entryDy=0;exitX=0.5;exitY=0;exitDx=0;exitDy=0;" edge="1" parent="1" source="19911jeWXW9q6ewDr9nu-596" target="19911jeWXW9q6ewDr9nu-590">
          <mxGeometry width="50" height="50" relative="1" as="geometry">
            <mxPoint x="508" y="786" as="sourcePoint" />
            <mxPoint x="558" y="736" as="targetPoint" />
          </mxGeometry>
        </mxCell>
        <mxCell id="19911jeWXW9q6ewDr9nu-609" value="" style="endArrow=none;html=1;rounded=1;entryX=0.5;entryY=1;entryDx=0;entryDy=0;exitX=0.5;exitY=0;exitDx=0;exitDy=0;" edge="1" parent="1" source="19911jeWXW9q6ewDr9nu-595" target="19911jeWXW9q6ewDr9nu-590">
          <mxGeometry width="50" height="50" relative="1" as="geometry">
            <mxPoint x="502" y="816" as="sourcePoint" />
            <mxPoint x="552" y="766" as="targetPoint" />
          </mxGeometry>
        </mxCell>
        <mxCell id="19911jeWXW9q6ewDr9nu-610" value="" style="endArrow=none;html=1;rounded=1;entryX=0.5;entryY=1;entryDx=0;entryDy=0;exitX=0.5;exitY=0;exitDx=0;exitDy=0;" edge="1" parent="1" source="19911jeWXW9q6ewDr9nu-598" target="19911jeWXW9q6ewDr9nu-595">
          <mxGeometry width="50" height="50" relative="1" as="geometry">
            <mxPoint x="587" y="864" as="sourcePoint" />
            <mxPoint x="637" y="814" as="targetPoint" />
          </mxGeometry>
        </mxCell>
        <mxCell id="19911jeWXW9q6ewDr9nu-611" value="" style="endArrow=none;html=1;rounded=1;entryX=0.5;entryY=1;entryDx=0;entryDy=0;exitX=0.5;exitY=0;exitDx=0;exitDy=0;" edge="1" parent="1" source="19911jeWXW9q6ewDr9nu-597" target="19911jeWXW9q6ewDr9nu-595">
          <mxGeometry width="50" height="50" relative="1" as="geometry">
            <mxPoint x="561" y="875" as="sourcePoint" />
            <mxPoint x="611" y="825" as="targetPoint" />
          </mxGeometry>
        </mxCell>
        <mxCell id="19911jeWXW9q6ewDr9nu-612" value="" style="endArrow=none;html=1;rounded=1;entryX=0.5;entryY=1;entryDx=0;entryDy=0;exitX=0.5;exitY=0;exitDx=0;exitDy=0;" edge="1" parent="1" source="19911jeWXW9q6ewDr9nu-600" target="19911jeWXW9q6ewDr9nu-597">
          <mxGeometry width="50" height="50" relative="1" as="geometry">
            <mxPoint x="604" y="906" as="sourcePoint" />
            <mxPoint x="654" y="856" as="targetPoint" />
          </mxGeometry>
        </mxCell>
        <mxCell id="19911jeWXW9q6ewDr9nu-615" value="" style="endArrow=none;html=1;rounded=1;entryX=0.5;entryY=1;entryDx=0;entryDy=0;exitX=0.5;exitY=0;exitDx=0;exitDy=0;" edge="1" parent="1" source="19911jeWXW9q6ewDr9nu-588" target="19911jeWXW9q6ewDr9nu-576">
          <mxGeometry width="50" height="50" relative="1" as="geometry">
            <mxPoint x="488" y="800" as="sourcePoint" />
            <mxPoint x="538" y="750" as="targetPoint" />
          </mxGeometry>
        </mxCell>
        <mxCell id="19911jeWXW9q6ewDr9nu-616" value="N" style="ellipse;whiteSpace=wrap;html=1;aspect=fixed;rounded=1;" vertex="1" parent="1">
          <mxGeometry x="840" y="665" width="30" height="30" as="geometry" />
        </mxCell>
        <mxCell id="19911jeWXW9q6ewDr9nu-617" value="=" style="ellipse;whiteSpace=wrap;html=1;aspect=fixed;rounded=1;" vertex="1" parent="1">
          <mxGeometry x="880" y="726" width="30" height="30" as="geometry" />
        </mxCell>
        <mxCell id="19911jeWXW9q6ewDr9nu-618" value="E" style="ellipse;whiteSpace=wrap;html=1;aspect=fixed;rounded=1;" vertex="1" parent="1">
          <mxGeometry x="923" y="726" width="30" height="30" as="geometry" />
        </mxCell>
        <mxCell id="19911jeWXW9q6ewDr9nu-619" value=";" style="ellipse;whiteSpace=wrap;html=1;aspect=fixed;rounded=1;" vertex="1" parent="1">
          <mxGeometry x="971" y="726" width="30" height="30" as="geometry" />
        </mxCell>
        <mxCell id="19911jeWXW9q6ewDr9nu-620" value="i" style="ellipse;whiteSpace=wrap;html=1;aspect=fixed;rounded=1;" vertex="1" parent="1">
          <mxGeometry x="842" y="726" width="30" height="30" as="geometry" />
        </mxCell>
        <mxCell id="19911jeWXW9q6ewDr9nu-621" value="t" style="ellipse;whiteSpace=wrap;html=1;aspect=fixed;rounded=1;" vertex="1" parent="1">
          <mxGeometry x="800" y="726" width="30" height="30" as="geometry" />
        </mxCell>
        <mxCell id="19911jeWXW9q6ewDr9nu-623" value="M" style="ellipse;whiteSpace=wrap;html=1;aspect=fixed;rounded=1;" vertex="1" parent="1">
          <mxGeometry x="914" y="779" width="30" height="30" as="geometry" />
        </mxCell>
        <mxCell id="19911jeWXW9q6ewDr9nu-624" value="l" style="ellipse;whiteSpace=wrap;html=1;aspect=fixed;rounded=1;" vertex="1" parent="1">
          <mxGeometry x="872" y="776" width="30" height="30" as="geometry" />
        </mxCell>
        <mxCell id="19911jeWXW9q6ewDr9nu-625" value="E" style="ellipse;whiteSpace=wrap;html=1;aspect=fixed;rounded=1;" vertex="1" parent="1">
          <mxGeometry x="914" y="831" width="30" height="30" as="geometry" />
        </mxCell>
        <mxCell id="19911jeWXW9q6ewDr9nu-626" value="v" style="ellipse;whiteSpace=wrap;html=1;aspect=fixed;rounded=1;" vertex="1" parent="1">
          <mxGeometry x="872" y="826" width="30" height="30" as="geometry" />
        </mxCell>
        <mxCell id="19911jeWXW9q6ewDr9nu-627" value="l" style="ellipse;whiteSpace=wrap;html=1;aspect=fixed;rounded=1;" vertex="1" parent="1">
          <mxGeometry x="914" y="883" width="30" height="30" as="geometry" />
        </mxCell>
        <mxCell id="19911jeWXW9q6ewDr9nu-628" value="" style="endArrow=none;html=1;rounded=1;entryX=0.5;entryY=1;entryDx=0;entryDy=0;exitX=0.5;exitY=0;exitDx=0;exitDy=0;" edge="1" parent="1" source="19911jeWXW9q6ewDr9nu-621" target="19911jeWXW9q6ewDr9nu-616">
          <mxGeometry width="50" height="50" relative="1" as="geometry">
            <mxPoint x="814" y="726" as="sourcePoint" />
            <mxPoint x="820.62" y="772" as="targetPoint" />
          </mxGeometry>
        </mxCell>
        <mxCell id="19911jeWXW9q6ewDr9nu-629" value="" style="endArrow=none;html=1;rounded=1;entryX=0.5;entryY=1;entryDx=0;entryDy=0;exitX=0.5;exitY=0;exitDx=0;exitDy=0;" edge="1" parent="1" source="19911jeWXW9q6ewDr9nu-620" target="19911jeWXW9q6ewDr9nu-616">
          <mxGeometry width="50" height="50" relative="1" as="geometry">
            <mxPoint x="749" y="828" as="sourcePoint" />
            <mxPoint x="799" y="778" as="targetPoint" />
          </mxGeometry>
        </mxCell>
        <mxCell id="19911jeWXW9q6ewDr9nu-630" value="" style="endArrow=none;html=1;rounded=1;entryX=0.5;entryY=1;entryDx=0;entryDy=0;exitX=0.5;exitY=0;exitDx=0;exitDy=0;" edge="1" parent="1" source="19911jeWXW9q6ewDr9nu-617" target="19911jeWXW9q6ewDr9nu-616">
          <mxGeometry width="50" height="50" relative="1" as="geometry">
            <mxPoint x="739" y="840" as="sourcePoint" />
            <mxPoint x="789" y="790" as="targetPoint" />
          </mxGeometry>
        </mxCell>
        <mxCell id="19911jeWXW9q6ewDr9nu-631" value="" style="endArrow=none;html=1;rounded=1;entryX=0.5;entryY=1;entryDx=0;entryDy=0;exitX=0.5;exitY=0;exitDx=0;exitDy=0;" edge="1" parent="1" source="19911jeWXW9q6ewDr9nu-618" target="19911jeWXW9q6ewDr9nu-616">
          <mxGeometry width="50" height="50" relative="1" as="geometry">
            <mxPoint x="750" y="828" as="sourcePoint" />
            <mxPoint x="800" y="778" as="targetPoint" />
          </mxGeometry>
        </mxCell>
        <mxCell id="19911jeWXW9q6ewDr9nu-632" value="" style="endArrow=none;html=1;rounded=1;entryX=0.5;entryY=1;entryDx=0;entryDy=0;exitX=0.5;exitY=0;exitDx=0;exitDy=0;" edge="1" parent="1" source="19911jeWXW9q6ewDr9nu-619" target="19911jeWXW9q6ewDr9nu-616">
          <mxGeometry width="50" height="50" relative="1" as="geometry">
            <mxPoint x="738" y="816" as="sourcePoint" />
            <mxPoint x="788" y="766" as="targetPoint" />
          </mxGeometry>
        </mxCell>
        <mxCell id="19911jeWXW9q6ewDr9nu-633" value="" style="endArrow=none;html=1;rounded=1;entryX=0.5;entryY=1;entryDx=0;entryDy=0;exitX=0.5;exitY=0;exitDx=0;exitDy=0;" edge="1" parent="1" source="19911jeWXW9q6ewDr9nu-639" target="19911jeWXW9q6ewDr9nu-616">
          <mxGeometry width="50" height="50" relative="1" as="geometry">
            <mxPoint x="1035" y="726" as="sourcePoint" />
            <mxPoint x="800" y="761" as="targetPoint" />
          </mxGeometry>
        </mxCell>
        <mxCell id="19911jeWXW9q6ewDr9nu-634" value="" style="endArrow=none;html=1;rounded=1;entryX=0.5;entryY=1;entryDx=0;entryDy=0;exitX=0.5;exitY=0;exitDx=0;exitDy=0;" edge="1" parent="1" source="19911jeWXW9q6ewDr9nu-624" target="19911jeWXW9q6ewDr9nu-618">
          <mxGeometry width="50" height="50" relative="1" as="geometry">
            <mxPoint x="709" y="833" as="sourcePoint" />
            <mxPoint x="759" y="783" as="targetPoint" />
          </mxGeometry>
        </mxCell>
        <mxCell id="19911jeWXW9q6ewDr9nu-635" value="" style="endArrow=none;html=1;rounded=1;entryX=0.5;entryY=1;entryDx=0;entryDy=0;exitX=0.5;exitY=0;exitDx=0;exitDy=0;" edge="1" parent="1" source="19911jeWXW9q6ewDr9nu-623" target="19911jeWXW9q6ewDr9nu-618">
          <mxGeometry width="50" height="50" relative="1" as="geometry">
            <mxPoint x="703" y="863" as="sourcePoint" />
            <mxPoint x="753" y="813" as="targetPoint" />
          </mxGeometry>
        </mxCell>
        <mxCell id="19911jeWXW9q6ewDr9nu-636" value="" style="endArrow=none;html=1;rounded=1;entryX=0.5;entryY=1;entryDx=0;entryDy=0;exitX=0.5;exitY=0;exitDx=0;exitDy=0;" edge="1" parent="1" source="19911jeWXW9q6ewDr9nu-626" target="19911jeWXW9q6ewDr9nu-623">
          <mxGeometry width="50" height="50" relative="1" as="geometry">
            <mxPoint x="788" y="911" as="sourcePoint" />
            <mxPoint x="838" y="861" as="targetPoint" />
          </mxGeometry>
        </mxCell>
        <mxCell id="19911jeWXW9q6ewDr9nu-637" value="" style="endArrow=none;html=1;rounded=1;entryX=0.5;entryY=1;entryDx=0;entryDy=0;exitX=0.5;exitY=0;exitDx=0;exitDy=0;" edge="1" parent="1" source="19911jeWXW9q6ewDr9nu-625" target="19911jeWXW9q6ewDr9nu-623">
          <mxGeometry width="50" height="50" relative="1" as="geometry">
            <mxPoint x="762" y="922" as="sourcePoint" />
            <mxPoint x="812" y="872" as="targetPoint" />
          </mxGeometry>
        </mxCell>
        <mxCell id="19911jeWXW9q6ewDr9nu-638" value="" style="endArrow=none;html=1;rounded=1;entryX=0.5;entryY=1;entryDx=0;entryDy=0;exitX=0.5;exitY=0;exitDx=0;exitDy=0;" edge="1" parent="1" source="19911jeWXW9q6ewDr9nu-627" target="19911jeWXW9q6ewDr9nu-625">
          <mxGeometry width="50" height="50" relative="1" as="geometry">
            <mxPoint x="805" y="953" as="sourcePoint" />
            <mxPoint x="855" y="903" as="targetPoint" />
          </mxGeometry>
        </mxCell>
        <mxCell id="19911jeWXW9q6ewDr9nu-639" value="N" style="ellipse;whiteSpace=wrap;html=1;aspect=fixed;rounded=1;" vertex="1" parent="1">
          <mxGeometry x="1055" y="717" width="30" height="30" as="geometry" />
        </mxCell>
        <mxCell id="19911jeWXW9q6ewDr9nu-640" value="=" style="ellipse;whiteSpace=wrap;html=1;aspect=fixed;rounded=1;" vertex="1" parent="1">
          <mxGeometry x="1095" y="778" width="30" height="30" as="geometry" />
        </mxCell>
        <mxCell id="19911jeWXW9q6ewDr9nu-641" value="E" style="ellipse;whiteSpace=wrap;html=1;aspect=fixed;rounded=1;" vertex="1" parent="1">
          <mxGeometry x="1138" y="778" width="30" height="30" as="geometry" />
        </mxCell>
        <mxCell id="19911jeWXW9q6ewDr9nu-642" value=";" style="ellipse;whiteSpace=wrap;html=1;aspect=fixed;rounded=1;" vertex="1" parent="1">
          <mxGeometry x="1186" y="778" width="30" height="30" as="geometry" />
        </mxCell>
        <mxCell id="19911jeWXW9q6ewDr9nu-643" value="i" style="ellipse;whiteSpace=wrap;html=1;aspect=fixed;rounded=1;" vertex="1" parent="1">
          <mxGeometry x="1057" y="778" width="30" height="30" as="geometry" />
        </mxCell>
        <mxCell id="19911jeWXW9q6ewDr9nu-644" value="t" style="ellipse;whiteSpace=wrap;html=1;aspect=fixed;rounded=1;" vertex="1" parent="1">
          <mxGeometry x="1013" y="779" width="30" height="30" as="geometry" />
        </mxCell>
        <mxCell id="19911jeWXW9q6ewDr9nu-646" value="M" style="ellipse;whiteSpace=wrap;html=1;aspect=fixed;rounded=1;" vertex="1" parent="1">
          <mxGeometry x="1129" y="831" width="30" height="30" as="geometry" />
        </mxCell>
        <mxCell id="19911jeWXW9q6ewDr9nu-647" value="l" style="ellipse;whiteSpace=wrap;html=1;aspect=fixed;rounded=1;" vertex="1" parent="1">
          <mxGeometry x="1087" y="828" width="30" height="30" as="geometry" />
        </mxCell>
        <mxCell id="19911jeWXW9q6ewDr9nu-648" value="E" style="ellipse;whiteSpace=wrap;html=1;aspect=fixed;rounded=1;" vertex="1" parent="1">
          <mxGeometry x="1129" y="883" width="30" height="30" as="geometry" />
        </mxCell>
        <mxCell id="19911jeWXW9q6ewDr9nu-649" value="v" style="ellipse;whiteSpace=wrap;html=1;aspect=fixed;rounded=1;" vertex="1" parent="1">
          <mxGeometry x="1087" y="878" width="30" height="30" as="geometry" />
        </mxCell>
        <mxCell id="19911jeWXW9q6ewDr9nu-650" value="l" style="ellipse;whiteSpace=wrap;html=1;aspect=fixed;rounded=1;" vertex="1" parent="1">
          <mxGeometry x="1129" y="935" width="30" height="30" as="geometry" />
        </mxCell>
        <mxCell id="19911jeWXW9q6ewDr9nu-651" value="" style="endArrow=none;html=1;rounded=1;entryX=0.5;entryY=1;entryDx=0;entryDy=0;exitX=0.5;exitY=0;exitDx=0;exitDy=0;" edge="1" parent="1" source="19911jeWXW9q6ewDr9nu-644" target="19911jeWXW9q6ewDr9nu-639">
          <mxGeometry width="50" height="50" relative="1" as="geometry">
            <mxPoint x="1029" y="778" as="sourcePoint" />
            <mxPoint x="1035.62" y="824" as="targetPoint" />
          </mxGeometry>
        </mxCell>
        <mxCell id="19911jeWXW9q6ewDr9nu-652" value="" style="endArrow=none;html=1;rounded=1;entryX=0.5;entryY=1;entryDx=0;entryDy=0;exitX=0.5;exitY=0;exitDx=0;exitDy=0;" edge="1" parent="1" source="19911jeWXW9q6ewDr9nu-643" target="19911jeWXW9q6ewDr9nu-639">
          <mxGeometry width="50" height="50" relative="1" as="geometry">
            <mxPoint x="964" y="880" as="sourcePoint" />
            <mxPoint x="1014" y="830" as="targetPoint" />
          </mxGeometry>
        </mxCell>
        <mxCell id="19911jeWXW9q6ewDr9nu-653" value="" style="endArrow=none;html=1;rounded=1;entryX=0.5;entryY=1;entryDx=0;entryDy=0;exitX=0.5;exitY=0;exitDx=0;exitDy=0;" edge="1" parent="1" source="19911jeWXW9q6ewDr9nu-640" target="19911jeWXW9q6ewDr9nu-639">
          <mxGeometry width="50" height="50" relative="1" as="geometry">
            <mxPoint x="954" y="892" as="sourcePoint" />
            <mxPoint x="1004" y="842" as="targetPoint" />
          </mxGeometry>
        </mxCell>
        <mxCell id="19911jeWXW9q6ewDr9nu-654" value="" style="endArrow=none;html=1;rounded=1;entryX=0.5;entryY=1;entryDx=0;entryDy=0;exitX=0.5;exitY=0;exitDx=0;exitDy=0;" edge="1" parent="1" source="19911jeWXW9q6ewDr9nu-641" target="19911jeWXW9q6ewDr9nu-639">
          <mxGeometry width="50" height="50" relative="1" as="geometry">
            <mxPoint x="965" y="880" as="sourcePoint" />
            <mxPoint x="1015" y="830" as="targetPoint" />
          </mxGeometry>
        </mxCell>
        <mxCell id="19911jeWXW9q6ewDr9nu-655" value="" style="endArrow=none;html=1;rounded=1;entryX=0.5;entryY=1;entryDx=0;entryDy=0;exitX=0.5;exitY=0;exitDx=0;exitDy=0;" edge="1" parent="1" source="19911jeWXW9q6ewDr9nu-642" target="19911jeWXW9q6ewDr9nu-639">
          <mxGeometry width="50" height="50" relative="1" as="geometry">
            <mxPoint x="953" y="868" as="sourcePoint" />
            <mxPoint x="1003" y="818" as="targetPoint" />
          </mxGeometry>
        </mxCell>
        <mxCell id="19911jeWXW9q6ewDr9nu-656" value="" style="endArrow=none;html=1;rounded=1;entryX=0.5;entryY=1;entryDx=0;entryDy=0;exitX=0.5;exitY=0;exitDx=0;exitDy=0;" edge="1" parent="1" source="19911jeWXW9q6ewDr9nu-662" target="19911jeWXW9q6ewDr9nu-639">
          <mxGeometry width="50" height="50" relative="1" as="geometry">
            <mxPoint x="1285" y="752" as="sourcePoint" />
            <mxPoint x="1015" y="813" as="targetPoint" />
          </mxGeometry>
        </mxCell>
        <mxCell id="19911jeWXW9q6ewDr9nu-657" value="" style="endArrow=none;html=1;rounded=1;entryX=0.5;entryY=1;entryDx=0;entryDy=0;exitX=0.5;exitY=0;exitDx=0;exitDy=0;" edge="1" parent="1" source="19911jeWXW9q6ewDr9nu-647" target="19911jeWXW9q6ewDr9nu-641">
          <mxGeometry width="50" height="50" relative="1" as="geometry">
            <mxPoint x="924" y="885" as="sourcePoint" />
            <mxPoint x="974" y="835" as="targetPoint" />
          </mxGeometry>
        </mxCell>
        <mxCell id="19911jeWXW9q6ewDr9nu-658" value="" style="endArrow=none;html=1;rounded=1;entryX=0.5;entryY=1;entryDx=0;entryDy=0;exitX=0.5;exitY=0;exitDx=0;exitDy=0;" edge="1" parent="1" source="19911jeWXW9q6ewDr9nu-646" target="19911jeWXW9q6ewDr9nu-641">
          <mxGeometry width="50" height="50" relative="1" as="geometry">
            <mxPoint x="918" y="915" as="sourcePoint" />
            <mxPoint x="968" y="865" as="targetPoint" />
          </mxGeometry>
        </mxCell>
        <mxCell id="19911jeWXW9q6ewDr9nu-659" value="" style="endArrow=none;html=1;rounded=1;entryX=0.5;entryY=1;entryDx=0;entryDy=0;exitX=0.5;exitY=0;exitDx=0;exitDy=0;" edge="1" parent="1" source="19911jeWXW9q6ewDr9nu-649" target="19911jeWXW9q6ewDr9nu-646">
          <mxGeometry width="50" height="50" relative="1" as="geometry">
            <mxPoint x="1003" y="963" as="sourcePoint" />
            <mxPoint x="1053" y="913" as="targetPoint" />
          </mxGeometry>
        </mxCell>
        <mxCell id="19911jeWXW9q6ewDr9nu-660" value="" style="endArrow=none;html=1;rounded=1;entryX=0.5;entryY=1;entryDx=0;entryDy=0;exitX=0.5;exitY=0;exitDx=0;exitDy=0;" edge="1" parent="1" source="19911jeWXW9q6ewDr9nu-648" target="19911jeWXW9q6ewDr9nu-646">
          <mxGeometry width="50" height="50" relative="1" as="geometry">
            <mxPoint x="977" y="974" as="sourcePoint" />
            <mxPoint x="1027" y="924" as="targetPoint" />
          </mxGeometry>
        </mxCell>
        <mxCell id="19911jeWXW9q6ewDr9nu-661" value="" style="endArrow=none;html=1;rounded=1;entryX=0.5;entryY=1;entryDx=0;entryDy=0;exitX=0.5;exitY=0;exitDx=0;exitDy=0;" edge="1" parent="1" source="19911jeWXW9q6ewDr9nu-650" target="19911jeWXW9q6ewDr9nu-648">
          <mxGeometry width="50" height="50" relative="1" as="geometry">
            <mxPoint x="1020" y="1005" as="sourcePoint" />
            <mxPoint x="1070" y="955" as="targetPoint" />
          </mxGeometry>
        </mxCell>
        <mxCell id="19911jeWXW9q6ewDr9nu-662" value="N" style="ellipse;whiteSpace=wrap;html=1;aspect=fixed;rounded=1;" vertex="1" parent="1">
          <mxGeometry x="1266" y="769" width="30" height="30" as="geometry" />
        </mxCell>
        <mxCell id="19911jeWXW9q6ewDr9nu-663" value="=" style="ellipse;whiteSpace=wrap;html=1;aspect=fixed;rounded=1;" vertex="1" parent="1">
          <mxGeometry x="1306" y="830" width="30" height="30" as="geometry" />
        </mxCell>
        <mxCell id="19911jeWXW9q6ewDr9nu-664" value="E" style="ellipse;whiteSpace=wrap;html=1;aspect=fixed;rounded=1;" vertex="1" parent="1">
          <mxGeometry x="1349" y="830" width="30" height="30" as="geometry" />
        </mxCell>
        <mxCell id="19911jeWXW9q6ewDr9nu-665" value=";" style="ellipse;whiteSpace=wrap;html=1;aspect=fixed;rounded=1;" vertex="1" parent="1">
          <mxGeometry x="1397" y="830" width="30" height="30" as="geometry" />
        </mxCell>
        <mxCell id="19911jeWXW9q6ewDr9nu-666" value="i" style="ellipse;whiteSpace=wrap;html=1;aspect=fixed;rounded=1;" vertex="1" parent="1">
          <mxGeometry x="1268" y="830" width="30" height="30" as="geometry" />
        </mxCell>
        <mxCell id="19911jeWXW9q6ewDr9nu-667" value="t" style="ellipse;whiteSpace=wrap;html=1;aspect=fixed;rounded=1;" vertex="1" parent="1">
          <mxGeometry x="1224" y="830" width="30" height="30" as="geometry" />
        </mxCell>
        <mxCell id="19911jeWXW9q6ewDr9nu-668" value="2" style="ellipse;whiteSpace=wrap;html=1;aspect=fixed;rounded=1;" vertex="1" parent="1">
          <mxGeometry x="1446" y="830" width="30" height="30" as="geometry" />
        </mxCell>
        <mxCell id="19911jeWXW9q6ewDr9nu-669" value="M" style="ellipse;whiteSpace=wrap;html=1;aspect=fixed;rounded=1;" vertex="1" parent="1">
          <mxGeometry x="1340" y="883" width="30" height="30" as="geometry" />
        </mxCell>
        <mxCell id="19911jeWXW9q6ewDr9nu-670" value="l" style="ellipse;whiteSpace=wrap;html=1;aspect=fixed;rounded=1;" vertex="1" parent="1">
          <mxGeometry x="1298" y="880" width="30" height="30" as="geometry" />
        </mxCell>
        <mxCell id="19911jeWXW9q6ewDr9nu-671" value="E" style="ellipse;whiteSpace=wrap;html=1;aspect=fixed;rounded=1;" vertex="1" parent="1">
          <mxGeometry x="1340" y="935" width="30" height="30" as="geometry" />
        </mxCell>
        <mxCell id="19911jeWXW9q6ewDr9nu-672" value="v" style="ellipse;whiteSpace=wrap;html=1;aspect=fixed;rounded=1;" vertex="1" parent="1">
          <mxGeometry x="1298" y="930" width="30" height="30" as="geometry" />
        </mxCell>
        <mxCell id="19911jeWXW9q6ewDr9nu-673" value="l" style="ellipse;whiteSpace=wrap;html=1;aspect=fixed;rounded=1;" vertex="1" parent="1">
          <mxGeometry x="1340" y="987" width="30" height="30" as="geometry" />
        </mxCell>
        <mxCell id="19911jeWXW9q6ewDr9nu-674" value="" style="endArrow=none;html=1;rounded=1;entryX=0.5;entryY=1;entryDx=0;entryDy=0;exitX=0.5;exitY=0;exitDx=0;exitDy=0;" edge="1" parent="1" source="19911jeWXW9q6ewDr9nu-667" target="19911jeWXW9q6ewDr9nu-662">
          <mxGeometry width="50" height="50" relative="1" as="geometry">
            <mxPoint x="1240" y="830" as="sourcePoint" />
            <mxPoint x="1246.62" y="876" as="targetPoint" />
          </mxGeometry>
        </mxCell>
        <mxCell id="19911jeWXW9q6ewDr9nu-675" value="" style="endArrow=none;html=1;rounded=1;entryX=0.5;entryY=1;entryDx=0;entryDy=0;exitX=0.5;exitY=0;exitDx=0;exitDy=0;" edge="1" parent="1" source="19911jeWXW9q6ewDr9nu-666" target="19911jeWXW9q6ewDr9nu-662">
          <mxGeometry width="50" height="50" relative="1" as="geometry">
            <mxPoint x="1175" y="932" as="sourcePoint" />
            <mxPoint x="1225" y="882" as="targetPoint" />
          </mxGeometry>
        </mxCell>
        <mxCell id="19911jeWXW9q6ewDr9nu-676" value="" style="endArrow=none;html=1;rounded=1;entryX=0.5;entryY=1;entryDx=0;entryDy=0;exitX=0.5;exitY=0;exitDx=0;exitDy=0;" edge="1" parent="1" source="19911jeWXW9q6ewDr9nu-663" target="19911jeWXW9q6ewDr9nu-662">
          <mxGeometry width="50" height="50" relative="1" as="geometry">
            <mxPoint x="1165" y="944" as="sourcePoint" />
            <mxPoint x="1215" y="894" as="targetPoint" />
          </mxGeometry>
        </mxCell>
        <mxCell id="19911jeWXW9q6ewDr9nu-677" value="" style="endArrow=none;html=1;rounded=1;entryX=0.5;entryY=1;entryDx=0;entryDy=0;exitX=0.5;exitY=0;exitDx=0;exitDy=0;" edge="1" parent="1" source="19911jeWXW9q6ewDr9nu-664" target="19911jeWXW9q6ewDr9nu-662">
          <mxGeometry width="50" height="50" relative="1" as="geometry">
            <mxPoint x="1176" y="932" as="sourcePoint" />
            <mxPoint x="1226" y="882" as="targetPoint" />
          </mxGeometry>
        </mxCell>
        <mxCell id="19911jeWXW9q6ewDr9nu-678" value="" style="endArrow=none;html=1;rounded=1;entryX=0.5;entryY=1;entryDx=0;entryDy=0;exitX=0.5;exitY=0;exitDx=0;exitDy=0;" edge="1" parent="1" source="19911jeWXW9q6ewDr9nu-665" target="19911jeWXW9q6ewDr9nu-662">
          <mxGeometry width="50" height="50" relative="1" as="geometry">
            <mxPoint x="1164" y="920" as="sourcePoint" />
            <mxPoint x="1214" y="870" as="targetPoint" />
          </mxGeometry>
        </mxCell>
        <mxCell id="19911jeWXW9q6ewDr9nu-679" value="" style="endArrow=none;html=1;rounded=1;entryX=0.5;entryY=1;entryDx=0;entryDy=0;exitX=0.5;exitY=0;exitDx=0;exitDy=0;" edge="1" parent="1" source="19911jeWXW9q6ewDr9nu-668" target="19911jeWXW9q6ewDr9nu-662">
          <mxGeometry width="50" height="50" relative="1" as="geometry">
            <mxPoint x="1176" y="915" as="sourcePoint" />
            <mxPoint x="1226" y="865" as="targetPoint" />
          </mxGeometry>
        </mxCell>
        <mxCell id="19911jeWXW9q6ewDr9nu-680" value="" style="endArrow=none;html=1;rounded=1;entryX=0.5;entryY=1;entryDx=0;entryDy=0;exitX=0.5;exitY=0;exitDx=0;exitDy=0;" edge="1" parent="1" source="19911jeWXW9q6ewDr9nu-670" target="19911jeWXW9q6ewDr9nu-664">
          <mxGeometry width="50" height="50" relative="1" as="geometry">
            <mxPoint x="1135" y="937" as="sourcePoint" />
            <mxPoint x="1185" y="887" as="targetPoint" />
          </mxGeometry>
        </mxCell>
        <mxCell id="19911jeWXW9q6ewDr9nu-681" value="" style="endArrow=none;html=1;rounded=1;entryX=0.5;entryY=1;entryDx=0;entryDy=0;exitX=0.5;exitY=0;exitDx=0;exitDy=0;" edge="1" parent="1" source="19911jeWXW9q6ewDr9nu-669" target="19911jeWXW9q6ewDr9nu-664">
          <mxGeometry width="50" height="50" relative="1" as="geometry">
            <mxPoint x="1129" y="967" as="sourcePoint" />
            <mxPoint x="1179" y="917" as="targetPoint" />
          </mxGeometry>
        </mxCell>
        <mxCell id="19911jeWXW9q6ewDr9nu-682" value="" style="endArrow=none;html=1;rounded=1;entryX=0.5;entryY=1;entryDx=0;entryDy=0;exitX=0.5;exitY=0;exitDx=0;exitDy=0;" edge="1" parent="1" source="19911jeWXW9q6ewDr9nu-672" target="19911jeWXW9q6ewDr9nu-669">
          <mxGeometry width="50" height="50" relative="1" as="geometry">
            <mxPoint x="1214" y="1015" as="sourcePoint" />
            <mxPoint x="1264" y="965" as="targetPoint" />
          </mxGeometry>
        </mxCell>
        <mxCell id="19911jeWXW9q6ewDr9nu-683" value="" style="endArrow=none;html=1;rounded=1;entryX=0.5;entryY=1;entryDx=0;entryDy=0;exitX=0.5;exitY=0;exitDx=0;exitDy=0;" edge="1" parent="1" source="19911jeWXW9q6ewDr9nu-671" target="19911jeWXW9q6ewDr9nu-669">
          <mxGeometry width="50" height="50" relative="1" as="geometry">
            <mxPoint x="1188" y="1026" as="sourcePoint" />
            <mxPoint x="1238" y="976" as="targetPoint" />
          </mxGeometry>
        </mxCell>
        <mxCell id="19911jeWXW9q6ewDr9nu-684" value="" style="endArrow=none;html=1;rounded=1;entryX=0.5;entryY=1;entryDx=0;entryDy=0;exitX=0.5;exitY=0;exitDx=0;exitDy=0;" edge="1" parent="1" source="19911jeWXW9q6ewDr9nu-673" target="19911jeWXW9q6ewDr9nu-671">
          <mxGeometry width="50" height="50" relative="1" as="geometry">
            <mxPoint x="1231" y="1057" as="sourcePoint" />
            <mxPoint x="1281" y="1007" as="targetPoint" />
          </mxGeometry>
        </mxCell>
        <mxCell id="19911jeWXW9q6ewDr9nu-749" value=";" style="ellipse;whiteSpace=wrap;html=1;aspect=fixed;rounded=1;" vertex="1" parent="1">
          <mxGeometry x="1114.75" y="493.5" width="30" height="30" as="geometry" />
        </mxCell>
        <mxCell id="19911jeWXW9q6ewDr9nu-750" value="z" style="ellipse;whiteSpace=wrap;html=1;aspect=fixed;rounded=1;" vertex="1" parent="1">
          <mxGeometry x="1034" y="493.5" width="30" height="30" as="geometry" />
        </mxCell>
        <mxCell id="19911jeWXW9q6ewDr9nu-751" value="i" style="ellipse;whiteSpace=wrap;html=1;aspect=fixed;rounded=1;" vertex="1" parent="1">
          <mxGeometry x="1072" y="493.5" width="30" height="30" as="geometry" />
        </mxCell>
        <mxCell id="19911jeWXW9q6ewDr9nu-752" value="N" style="ellipse;whiteSpace=wrap;html=1;aspect=fixed;rounded=1;" vertex="1" parent="1">
          <mxGeometry x="1087" y="443" width="30" height="30" as="geometry" />
        </mxCell>
        <mxCell id="19911jeWXW9q6ewDr9nu-753" value="" style="endArrow=none;html=1;rounded=1;entryX=0.5;entryY=1;entryDx=0;entryDy=0;exitX=0.5;exitY=0;exitDx=0;exitDy=0;" edge="1" parent="1" source="19911jeWXW9q6ewDr9nu-750" target="19911jeWXW9q6ewDr9nu-752">
          <mxGeometry width="50" height="50" relative="1" as="geometry">
            <mxPoint x="1045" y="603" as="sourcePoint" />
            <mxPoint x="1095" y="553" as="targetPoint" />
          </mxGeometry>
        </mxCell>
        <mxCell id="19911jeWXW9q6ewDr9nu-754" value="" style="endArrow=none;html=1;rounded=1;entryX=0.5;entryY=1;entryDx=0;entryDy=0;exitX=0.5;exitY=0;exitDx=0;exitDy=0;" edge="1" parent="1" source="19911jeWXW9q6ewDr9nu-751" target="19911jeWXW9q6ewDr9nu-752">
          <mxGeometry width="50" height="50" relative="1" as="geometry">
            <mxPoint x="961" y="672" as="sourcePoint" />
            <mxPoint x="1159" y="618" as="targetPoint" />
          </mxGeometry>
        </mxCell>
        <mxCell id="19911jeWXW9q6ewDr9nu-755" value="" style="endArrow=none;html=1;rounded=1;entryX=0.5;entryY=1;entryDx=0;entryDy=0;exitX=0.5;exitY=0;exitDx=0;exitDy=0;" edge="1" parent="1" source="19911jeWXW9q6ewDr9nu-749" target="19911jeWXW9q6ewDr9nu-752">
          <mxGeometry width="50" height="50" relative="1" as="geometry">
            <mxPoint x="1055" y="631" as="sourcePoint" />
            <mxPoint x="1105" y="581" as="targetPoint" />
          </mxGeometry>
        </mxCell>
        <mxCell id="19911jeWXW9q6ewDr9nu-756" value="" style="endArrow=none;html=1;rounded=1;exitX=0.5;exitY=1;exitDx=0;exitDy=0;entryX=0.5;entryY=0;entryDx=0;entryDy=0;" edge="1" parent="1" source="19911jeWXW9q6ewDr9nu-752" target="19911jeWXW9q6ewDr9nu-436">
          <mxGeometry width="50" height="50" relative="1" as="geometry">
            <mxPoint x="1205" y="473" as="sourcePoint" />
            <mxPoint x="1323" y="415" as="targetPoint" />
          </mxGeometry>
        </mxCell>
      </root>
    </mxGraphModel>
  </diagram>
</mxfile>
